<svg width="544" height="338" viewBox="0 0 544 338" fill="none" xmlns="http://www.w3.org/2000/svg">
<path d="M134.156 189.938H157.359V222.703H134.156V267H93.5156V222.703H9.5625L7.73438 197.109L93.0938 62.25H134.156V189.938ZM48.2344 189.938H93.5156V117.656L90.8438 122.297L48.2344 189.938Z" fill="#3C425A"/>
<path d="M512.781 189.938H535.984V222.703H512.781V267H472.141V222.703H388.188L386.359 197.109L471.719 62.25H512.781V189.938ZM426.859 189.938H472.141V117.656L469.469 122.297L426.859 189.938Z" fill="#3C425A"/>
<path fill-rule="evenodd" clip-rule="evenodd" d="M262.863 83.371C243.016 85.024 223.804 92.4805 207.583 104.826C202.647 108.583 193.314 117.766 189.389 122.727C177.705 137.496 170.364 154.089 167.089 173.138C165.839 180.412 165.727 197.112 166.881 204.314C168.277 213.02 170.92 222.378 174.218 230.285C175.168 232.561 175.439 233.629 175.095 233.744C173.906 234.14 170.425 237.283 169.199 239.067C165.39 244.606 164.963 251.268 168.022 257.395C169.385 260.124 172.735 263.541 175.363 264.882C179.731 267.112 174.559 266.999 271.977 266.999C369.396 266.999 364.224 267.112 368.592 264.882C369.537 264.4 371.3 263.068 372.511 261.922C378.992 255.789 379.766 245.354 374.259 238.382C372.768 236.495 369.993 234.122 368.821 233.731C368.53 233.634 368.941 232.142 369.94 229.673C378.819 207.726 380.39 184.584 374.515 162.239C372.489 154.534 370.694 149.792 366.854 142.004C347.599 102.96 306.424 79.7439 262.863 83.371ZM268.969 98.9355C269.754 100.336 271.712 100.965 273.271 100.318C275.054 99.5797 275.706 97.7813 275.706 93.6048V90.1601L280.16 90.4889C292.162 91.3753 305.415 95.0745 316.413 100.609L318.384 101.601L317.106 103.769C314.617 107.99 314.193 109.216 314.709 110.697C315.271 112.31 317.389 113.391 318.876 112.822C320.093 112.356 320.778 111.538 322.731 108.217C323.603 106.734 324.37 105.453 324.435 105.368C324.5 105.284 325.727 106.011 327.162 106.984C334.339 111.85 341.744 118.43 346.886 124.512C349.927 128.108 355.664 135.878 355.664 136.4C355.664 136.571 354.18 137.573 352.366 138.628C348.955 140.611 348.206 141.432 348.206 143.187C348.206 144.795 348.621 145.507 349.958 146.199C351.503 146.998 352.368 146.783 355.976 144.701C357.559 143.788 359.041 143.041 359.27 143.041C360.343 143.041 365.761 156.522 367.645 163.877C369.474 171.015 371.388 184.351 370.736 185.407C370.622 185.591 368.722 185.748 366.514 185.755C362.145 185.77 361.378 186.066 360.633 188.029C360.302 188.899 360.313 189.525 360.675 190.398C361.431 192.225 362.978 192.79 367.223 192.79H370.953L370.749 194.967C369.477 208.574 367.321 217.696 362.913 228.133L361.381 231.76H359.338C356.504 231.76 354.527 232.657 354.144 234.117C353.717 235.746 353.939 236.79 354.944 237.875C355.712 238.703 356.208 238.808 359.383 238.808C362.414 238.808 363.291 238.974 365.147 239.899C368.601 241.622 370.992 245.569 370.992 249.547C370.992 251.855 369.412 255.215 367.495 256.983C364.21 260.013 364.916 259.952 332.906 259.944L304.499 259.938L307.897 258.111C342.048 239.762 357.787 200.754 345.677 164.473C340.067 147.665 328.844 133.174 314.046 123.633C286.642 105.963 250.981 107.447 224.634 127.353C220.327 130.608 213.269 137.692 210.039 142.002C194.528 162.704 190.138 189.26 198.214 213.539C204.645 232.871 217.685 248.241 236.005 258.084L239.456 259.938L211.049 259.944C179.334 259.952 179.766 259.987 176.637 257.158C170.961 252.027 172.139 243.17 178.939 239.841C180.857 238.902 181.627 238.763 184.42 238.85C188.385 238.973 189.364 238.682 190.16 237.141C191.031 235.456 190.94 234.858 189.583 233.338C188.49 232.114 188.14 231.986 185.466 231.835L182.544 231.67L180.479 226.636C176.371 216.626 174.243 207.403 173.222 195.174L173.023 192.79H176.702C180.872 192.79 182.288 192.314 183.165 190.616C183.865 189.262 183.618 188.038 182.372 186.675C181.598 185.83 181.139 185.742 177.472 185.742C175.247 185.742 173.334 185.593 173.221 185.41C172.844 184.8 173.796 176.067 174.842 170.538C176.518 161.685 179.548 152.591 183.305 145.144L184.567 142.643L187.708 144.501C191.565 146.783 192.421 147.014 193.997 146.199C195.395 145.476 195.749 144.804 195.749 142.872C195.749 141.246 194.907 140.409 191.088 138.236C189.55 137.362 188.291 136.521 188.291 136.368C188.291 135.872 194.12 127.999 197.069 124.512C202.217 118.424 209.615 111.851 216.813 106.97C218.932 105.533 219.516 105.3 219.821 105.769C220.029 106.089 220.836 107.475 221.614 108.849C223.739 112.603 224.811 113.309 227.365 112.639C228.166 112.429 228.722 111.878 229.138 110.881C229.692 109.555 229.674 109.276 228.936 107.682C228.491 106.722 227.545 104.949 226.833 103.742L225.54 101.547L229.805 99.5532C241.287 94.1869 254.004 90.9458 266.177 90.2841L268.042 90.1825L268.26 94.121C268.38 96.2872 268.699 98.4537 268.969 98.9355ZM281.299 119.026C301.157 121.582 319.41 132.932 330.588 149.674C356.409 188.351 338.847 240.692 294.932 255.939C261.413 267.576 224.188 252.233 208.609 220.359C193.108 188.646 202.893 151.182 232.007 130.777C236.082 127.922 244.824 123.58 249.813 121.934C259.489 118.741 270.899 117.688 281.299 119.026ZM262.242 126.232C226.4 131.87 202.439 166.324 209.659 201.84C213.496 220.72 226.031 237.068 243.392 245.835C261.637 255.05 282.199 255.053 300.581 245.842C307.216 242.518 311.93 239.095 317.368 233.652C326.971 224.043 332.274 213.713 334.603 200.079C335.709 193.604 335.498 182.842 334.141 176.513C327.556 145.81 302.53 125.46 271.615 125.67C268.282 125.692 264.065 125.945 262.242 126.232ZM278.505 133.02C278.92 133.283 278.848 136.111 278.154 146.986C277.054 164.199 277.087 164.345 282.819 167.359C284.429 168.206 287.227 170.259 289.037 171.921C292.818 175.396 294.612 176.138 297.479 175.416C298.447 175.171 304.608 172.829 311.172 170.21C319.924 166.718 323.192 165.584 323.43 165.956C324.749 168.026 327.777 178.188 327.219 178.674C327.027 178.841 321.185 180.432 314.235 182.21C307.285 183.987 301.114 185.686 300.521 185.986C298.289 187.111 296.955 189.202 296.412 192.427C295.811 195.989 294.864 198.859 293.365 201.661C292.014 204.185 291.896 207.291 293.077 209.229C293.515 209.948 297.522 214.947 301.983 220.338C306.443 225.729 310.092 230.303 310.092 230.503C310.092 231.093 306.838 233.733 302.875 236.357C300.843 237.703 299.144 238.759 299.101 238.703C299.059 238.647 295.897 233.657 292.075 227.614C288.253 221.572 284.731 216.185 284.248 215.642C282.633 213.828 281.478 213.652 271.77 213.741C266.757 213.787 262.437 213.848 262.17 213.879C260.839 214.028 258.679 216.905 252.061 227.336L244.843 238.714L243.272 237.828C241.075 236.589 234.622 231.689 234.143 230.896C233.831 230.378 235.47 228.163 241.891 220.425C246.371 215.027 250.405 210.005 250.855 209.266C252.059 207.29 251.952 204.206 250.59 201.661C249.091 198.859 248.144 195.989 247.543 192.427C247 189.206 245.674 187.124 243.434 185.978C242.841 185.674 236.67 183.973 229.72 182.198C222.77 180.422 216.928 178.835 216.736 178.67C216.178 178.19 219.208 168.023 220.523 165.959C220.758 165.591 224.088 166.743 232.843 170.221C239.443 172.843 245.605 175.184 246.539 175.423C249.331 176.14 251.157 175.377 254.918 171.921C256.728 170.259 259.526 168.206 261.136 167.359C266.707 164.43 266.874 163.83 266.009 149.858C265.643 143.942 265.231 137.768 265.094 136.136C264.87 133.475 264.924 133.149 265.614 132.971C266.938 132.63 277.957 132.672 278.505 133.02ZM258.078 137.34C258.33 140.291 259.545 158.945 259.547 159.907C259.548 160.177 259.185 160.513 258.741 160.654C257.303 161.111 251.931 164.868 250.227 166.61C249.316 167.541 248.303 168.309 247.976 168.316C247.293 168.332 225.144 159.678 224.589 159.179C223.972 158.623 227.967 153.426 232.377 149.05C236.977 144.483 241.184 141.404 246.371 138.806C249.24 137.369 256.634 134.424 257.546 134.356C257.697 134.344 257.936 135.687 258.078 137.34ZM289.818 135.521C298.237 138.376 305.256 142.735 311.578 149.034C316.007 153.446 319.979 158.624 319.366 159.184C318.849 159.657 296.749 168.334 296.068 168.332C295.76 168.331 294.638 167.496 293.575 166.476C291.02 164.026 289.197 162.685 286.685 161.407C285.545 160.827 284.559 160.306 284.492 160.247C284.244 160.031 285.963 134.335 286.226 134.335C286.279 134.335 287.895 134.868 289.818 135.521ZM269.285 171.72C259.937 172.974 252.952 182.585 254.582 191.953C255.891 199.478 261.54 205.105 269.207 206.518C276.57 207.876 284.518 203.707 287.752 196.791C293.85 183.751 283.577 169.805 269.285 171.72ZM276.337 179.47C284.263 183.073 284.591 194.18 276.895 198.378C270.005 202.135 261.554 197.147 261.496 189.288C261.465 185.017 263.82 181.25 267.627 179.482C269.836 178.457 274.094 178.451 276.337 179.47ZM236.503 191.242C238.524 191.744 240.228 192.345 240.289 192.576C240.35 192.808 240.784 194.642 241.254 196.653C241.725 198.663 242.695 201.579 243.41 203.132L244.711 205.957L236.768 215.542C232.4 220.814 228.721 225.127 228.594 225.127C227.94 225.127 223.485 218.429 221.464 214.407C217.263 206.045 215.234 196.715 215.579 187.343L215.634 185.835L224.231 188.081C228.959 189.317 234.481 190.739 236.503 191.242ZM328.386 190.625C328.286 198.738 326.219 206.995 322.381 214.615C320.605 218.143 315.979 225.117 315.411 225.124C315.153 225.127 300.233 207.257 299.59 206.175C299.425 205.899 299.738 204.78 300.284 203.688C301.53 201.199 302.472 198.319 303.158 194.901L303.692 192.245L315.903 189.06C322.619 187.308 328.188 185.935 328.278 186.008C328.368 186.081 328.417 188.158 328.386 190.625ZM285.798 230.931C289.357 236.517 292.286 241.275 292.307 241.503C292.36 242.079 285.955 244.067 281.378 244.894C276.368 245.799 267.587 245.799 262.577 244.894C258.32 244.125 251.433 242.048 251.54 241.566C251.578 241.394 254.529 236.645 258.096 231.013L264.582 220.774H271.955H279.328L285.798 230.931Z" fill="#3C425A"/>
</svg>
