<svg width="163" height="28" viewBox="0 0 163 28" fill="none" xmlns="http://www.w3.org/2000/svg">
<path d="M21.0977 27H15.8242L5.55859 10.1602V27H0.285156V1.40625H5.55859L15.8418 18.2812V1.40625H21.0977V27ZM24.5781 17.3145C24.5781 15.4277 24.9414 13.7461 25.668 12.2695C26.3945 10.793 27.4375 9.65039 28.7969 8.8418C30.168 8.0332 31.7559 7.62891 33.5605 7.62891C36.127 7.62891 38.2188 8.41406 39.8359 9.98438C41.4648 11.5547 42.373 13.6875 42.5605 16.3828L42.5957 17.6836C42.5957 20.6016 41.7812 22.9453 40.1523 24.7148C38.5234 26.4727 36.3379 27.3516 33.5957 27.3516C30.8535 27.3516 28.6621 26.4727 27.0215 24.7148C25.3926 22.957 24.5781 20.5664 24.5781 17.543V17.3145ZM29.6582 17.6836C29.6582 19.4883 29.998 20.8711 30.6777 21.832C31.3574 22.7812 32.3301 23.2559 33.5957 23.2559C34.8262 23.2559 35.7871 22.7871 36.4785 21.8496C37.1699 20.9004 37.5156 19.3887 37.5156 17.3145C37.5156 15.5449 37.1699 14.1738 36.4785 13.2012C35.7871 12.2285 34.8145 11.7422 33.5605 11.7422C32.3184 11.7422 31.3574 12.2285 30.6777 13.2012C29.998 14.1621 29.6582 15.6562 29.6582 17.6836ZM65.377 12.7441C64.6855 12.6504 64.0762 12.6035 63.5488 12.6035C61.627 12.6035 60.3672 13.2539 59.7695 14.5547V27H54.6895V7.98047H59.4883L59.6289 10.248C60.6484 8.50195 62.0605 7.62891 63.8652 7.62891C64.4277 7.62891 64.9551 7.70508 65.4473 7.85742L65.377 12.7441ZM76.2402 27.3516C73.4512 27.3516 71.1777 26.4961 69.4199 24.7852C67.6738 23.0742 66.8008 20.7949 66.8008 17.9473V17.4551C66.8008 15.5449 67.1699 13.8398 67.9082 12.3398C68.6465 10.8281 69.6895 9.66797 71.0371 8.85938C72.3965 8.03906 73.9434 7.62891 75.6777 7.62891C78.2793 7.62891 80.3242 8.44922 81.8125 10.0898C83.3125 11.7305 84.0625 14.0566 84.0625 17.0684V19.1426H71.9512C72.1152 20.3848 72.6074 21.3809 73.4277 22.1309C74.2598 22.8809 75.3086 23.2559 76.5742 23.2559C78.5312 23.2559 80.0605 22.5469 81.1621 21.1289L83.6582 23.9238C82.8965 25.002 81.8652 25.8457 80.5645 26.4551C79.2637 27.0527 77.8223 27.3516 76.2402 27.3516ZM75.6602 11.7422C74.6523 11.7422 73.832 12.082 73.1992 12.7617C72.5781 13.4414 72.1797 14.4141 72.0039 15.6797H79.0703V15.2754C79.0469 14.1504 78.7422 13.2832 78.1562 12.6738C77.5703 12.0527 76.7383 11.7422 75.6602 11.7422ZM97.2637 21.7441C97.2637 21.123 96.9531 20.6367 96.332 20.2852C95.7227 19.9219 94.7383 19.5996 93.3789 19.3184C88.8555 18.3691 86.5938 16.4473 86.5938 13.5527C86.5938 11.8652 87.291 10.459 88.6855 9.33398C90.0918 8.19727 91.9258 7.62891 94.1875 7.62891C96.6016 7.62891 98.5293 8.19727 99.9707 9.33398C101.424 10.4707 102.15 11.9473 102.15 13.7637H97.0703C97.0703 13.0371 96.8359 12.4395 96.3672 11.9707C95.8984 11.4902 95.166 11.25 94.1699 11.25C93.3145 11.25 92.6523 11.4434 92.1836 11.8301C91.7148 12.2168 91.4805 12.709 91.4805 13.3066C91.4805 13.8691 91.7441 14.3262 92.2715 14.6777C92.8105 15.0176 93.7129 15.3164 94.9785 15.5742C96.2441 15.8203 97.3105 16.1016 98.1777 16.418C100.861 17.4023 102.203 19.1074 102.203 21.5332C102.203 23.2676 101.459 24.6738 99.9707 25.752C98.4824 26.8184 96.5605 27.3516 94.2051 27.3516C92.6113 27.3516 91.1934 27.0703 89.9512 26.5078C88.7207 25.9336 87.7539 25.1543 87.0508 24.1699C86.3477 23.1738 85.9961 22.1016 85.9961 20.9531H90.8125C90.8594 21.8555 91.1934 22.5469 91.8145 23.0273C92.4355 23.5078 93.2676 23.748 94.3105 23.748C95.2832 23.748 96.0156 23.5664 96.5078 23.2031C97.0117 22.8281 97.2637 22.3418 97.2637 21.7441ZM116.881 25.0664C115.627 26.5898 113.893 27.3516 111.678 27.3516C109.639 27.3516 108.08 26.7656 107.002 25.5938C105.936 24.4219 105.391 22.7051 105.367 20.4434V7.98047H110.447V20.2676C110.447 22.248 111.35 23.2383 113.154 23.2383C114.877 23.2383 116.061 22.6406 116.705 21.4453V7.98047H121.803V27H117.021L116.881 25.0664ZM130.996 27H125.898V0H130.996V27ZM141.279 3.30469V7.98047H144.531V11.707H141.279V21.1992C141.279 21.9023 141.414 22.4062 141.684 22.7109C141.953 23.0156 142.469 23.168 143.23 23.168C143.793 23.168 144.291 23.127 144.725 23.0449V26.8945C143.729 27.1992 142.703 27.3516 141.648 27.3516C138.086 27.3516 136.27 25.5527 136.199 21.9551V11.707H133.422V7.98047H136.199V3.30469H141.279ZM157.662 21.7441C157.662 21.123 157.352 20.6367 156.73 20.2852C156.121 19.9219 155.137 19.5996 153.777 19.3184C149.254 18.3691 146.992 16.4473 146.992 13.5527C146.992 11.8652 147.689 10.459 149.084 9.33398C150.49 8.19727 152.324 7.62891 154.586 7.62891C157 7.62891 158.928 8.19727 160.369 9.33398C161.822 10.4707 162.549 11.9473 162.549 13.7637H157.469C157.469 13.0371 157.234 12.4395 156.766 11.9707C156.297 11.4902 155.564 11.25 154.568 11.25C153.713 11.25 153.051 11.4434 152.582 11.8301C152.113 12.2168 151.879 12.709 151.879 13.3066C151.879 13.8691 152.143 14.3262 152.67 14.6777C153.209 15.0176 154.111 15.3164 155.377 15.5742C156.643 15.8203 157.709 16.1016 158.576 16.418C161.26 17.4023 162.602 19.1074 162.602 21.5332C162.602 23.2676 161.857 24.6738 160.369 25.752C158.881 26.8184 156.959 27.3516 154.604 27.3516C153.01 27.3516 151.592 27.0703 150.35 26.5078C149.119 25.9336 148.152 25.1543 147.449 24.1699C146.746 23.1738 146.395 22.1016 146.395 20.9531H151.211C151.258 21.8555 151.592 22.5469 152.213 23.0273C152.834 23.5078 153.666 23.748 154.709 23.748C155.682 23.748 156.414 23.5664 156.906 23.2031C157.41 22.8281 157.662 22.3418 157.662 21.7441Z" fill="#DFDFDF"/>
</svg>
