<svg width="442" height="294" viewBox="0 0 442 294" fill="none" xmlns="http://www.w3.org/2000/svg">
<path d="M393.055 88.3587L387.415 115.613L383.785 112.079L377.609 116.471L372.888 110.626L362.304 118.306L353.257 103.212L343.168 109.109L339.166 103.606L326.354 110.809L322.5 102.571L331.481 59.1704L379.63 69.09L393.055 88.3587Z" fill="#EBEBEB"/>
<path d="M379.63 69.0898L393.055 88.3586L376.354 84.9188L379.63 69.0898Z" fill="#DBDBDB"/>
<path d="M386.213 121.057L377.945 161.041L313.089 147.682L321.298 108.021L325.153 116.253L337.97 109.05L341.966 114.554L352.061 108.662L361.102 123.756L371.692 116.077L376.407 121.922L382.589 117.529L386.213 121.057Z" fill="#EBEBEB"/>
<path d="M293.388 116.371L227.294 120.452L222.043 35.8034L271.123 32.7693L289.139 47.8515L293.388 116.371Z" fill="#EBEBEB"/>
<path d="M271.123 32.7693L289.139 47.8515L272.119 48.904L271.123 32.7693Z" fill="#DBDBDB"/>
<path d="M252.8 89.7288L252.547 87.8178C251.881 83.8605 252.965 79.4329 256.413 74.8053C259.519 70.7128 261.204 67.7317 261.021 64.4095C260.809 60.6463 258.305 58.2708 253.643 58.4589C250.979 58.6059 248.074 59.6584 246.306 61.1637L244.272 56.6185C246.612 54.7134 250.761 53.2963 254.68 53.0787C263.178 52.6024 267.315 57.624 267.634 63.2276C267.917 68.2432 265.312 72.0123 262 76.4164C258.965 80.4325 257.963 83.7429 258.393 87.4944L258.576 89.4054L252.8 89.7288ZM251.751 100.142C251.598 97.4139 253.336 95.3912 255.924 95.2501C258.511 95.1031 260.391 96.9259 260.544 99.6542C260.691 102.236 259.1 104.323 256.366 104.476C253.784 104.617 251.898 102.724 251.751 100.142Z" fill="#DBDBDB"/>
<path d="M87.5035 75.3287L80.8558 72.324L79.9364 74.3585C79.6653 74.9582 79.076 75.3345 78.4218 75.3639C78.0565 75.3816 77.697 75.4169 77.3375 75.4698C76.6892 75.5697 76.0409 75.3051 75.6579 74.7759L74.3554 72.9649L68.415 77.2103L69.7174 79.0213C70.1005 79.5505 70.1358 80.2502 69.8353 80.8323C69.6644 81.1557 69.517 81.485 69.3874 81.8261C69.1516 82.4376 68.5977 82.8727 67.9435 82.9315L65.7158 83.1491L66.4348 90.3991L68.6684 90.1756C69.3225 90.111 69.9413 90.4344 70.3008 90.9871C70.3951 91.14 70.4953 91.287 70.6014 91.434C70.7075 91.581 70.8136 91.7221 70.9255 91.8632C71.3322 92.3748 71.4441 93.0627 71.173 93.6566L70.2419 95.7028L76.8955 98.7134L77.8207 96.6789C78.0918 96.0792 78.6811 95.7029 79.3353 95.6735C79.6948 95.6558 80.0602 95.6205 80.4197 95.5676C81.068 95.4676 81.7162 95.7323 82.0993 96.2615L83.4017 98.0725L89.3422 93.8271L88.0398 92.0161C87.6567 91.4869 87.6213 90.7872 87.9219 90.2051C88.0869 89.8817 88.2401 89.5524 88.3698 89.2172C88.6055 88.6057 89.1595 88.1706 89.8136 88.1059L92.0413 87.8883L91.3223 80.6383L89.0888 80.8558C88.4346 80.9205 87.8217 80.5971 87.4622 80.0444C87.3679 79.8915 87.2618 79.7445 87.1558 79.5975C87.0497 79.4505 86.9436 79.3094 86.8316 79.1683C86.4191 78.6567 86.313 77.9629 86.5841 77.369L87.5035 75.3287ZM83.7317 82.0377C85.653 84.719 85.0401 88.441 82.3527 90.3638C79.6653 92.2807 75.929 91.6692 74.0018 88.9938C72.0806 86.3125 72.6935 82.5787 75.3809 80.6618C78.0682 78.739 81.8046 79.3623 83.7317 82.0377Z" fill="#EBEBEB"/>
<path d="M388.005 171.525L383.573 174.077L384.357 175.43C384.586 175.83 384.563 176.318 384.315 176.7C384.174 176.912 384.05 177.135 383.932 177.358C383.726 177.764 383.308 178.029 382.854 178.029H381.286V183.133H382.854C383.313 183.133 383.726 183.397 383.932 183.803C384.05 184.032 384.174 184.25 384.315 184.461C384.569 184.844 384.586 185.338 384.357 185.732L383.573 187.084L388.005 189.636L388.788 188.278C389.018 187.878 389.454 187.66 389.92 187.684C390.044 187.69 390.173 187.695 390.297 187.695C390.421 187.695 390.55 187.69 390.674 187.684C391.134 187.66 391.57 187.878 391.8 188.272L392.59 189.636L397.021 187.084L396.238 185.726C396.008 185.326 396.031 184.838 396.285 184.456C396.426 184.244 396.55 184.026 396.668 183.797C396.874 183.391 397.287 183.127 397.746 183.127H399.314V178.023H397.746C397.287 178.023 396.874 177.758 396.668 177.353C396.55 177.123 396.426 176.906 396.285 176.694C396.031 176.312 396.008 175.818 396.238 175.424L397.021 174.066L392.59 171.514L391.806 172.872C391.576 173.272 391.14 173.489 390.68 173.466C390.556 173.46 390.427 173.454 390.303 173.454C390.179 173.454 390.05 173.46 389.926 173.466C389.466 173.489 389.024 173.272 388.794 172.872L388.005 171.525ZM390.297 176.406C392.613 176.406 394.487 178.276 394.487 180.587C394.487 182.897 392.613 184.767 390.297 184.767C387.981 184.767 386.107 182.891 386.107 180.587C386.107 178.276 387.981 176.406 390.297 176.406Z" fill="#EBEBEB"/>
<path d="M100.952 53.6022L96.8851 56.7009L97.8398 57.9416C98.1227 58.3062 98.164 58.7942 97.9636 59.2117C97.8516 59.441 97.7573 59.6762 97.6689 59.9173C97.5157 60.3465 97.1385 60.664 96.6847 60.7228L95.1289 60.9228L95.789 65.9854L97.3448 65.7855C97.7986 65.7267 98.2465 65.9325 98.5058 66.3147C98.6531 66.5264 98.8063 66.7263 98.9714 66.9204C99.2719 67.2673 99.3544 67.7494 99.1776 68.1787L98.5765 69.6193L103.303 71.5773L103.904 70.1308C104.081 69.7075 104.488 69.4311 104.947 69.3958C105.071 69.3841 105.195 69.3723 105.324 69.3547C105.448 69.337 105.572 69.3194 105.696 69.2959C106.149 69.2136 106.609 69.3723 106.886 69.7369L107.847 70.9893L111.913 67.8906L110.958 66.644C110.681 66.2794 110.64 65.7914 110.841 65.3739C110.953 65.1446 111.047 64.9094 111.135 64.6742C111.288 64.245 111.666 63.9274 112.119 63.8686L113.675 63.6687L113.015 58.606L111.459 58.806C111.006 58.8648 110.558 58.659 110.298 58.2826C110.157 58.071 109.998 57.871 109.833 57.677C109.532 57.3301 109.45 56.8479 109.627 56.4187L110.228 54.9722L105.501 53.0142L104.9 54.4606C104.723 54.884 104.317 55.1545 103.863 55.1956C103.739 55.2074 103.609 55.2192 103.486 55.2368C103.362 55.2544 103.238 55.2721 103.114 55.2956C102.661 55.3779 102.195 55.2192 101.918 54.8546L100.952 53.6022ZM103.857 58.1474C106.149 57.8475 108.253 59.4645 108.554 61.7518C108.854 64.0392 107.234 66.1442 104.941 66.4382C102.649 66.7381 100.539 65.1211 100.244 62.8279C99.9379 60.5464 101.559 58.4473 103.857 58.1474Z" fill="#EBEBEB"/>
<path d="M70.6134 186.267C70.8433 180.575 70.7549 174.877 70.3777 169.197C69.6057 157.478 67.6727 145.848 65.0148 134.417C63.5179 127.978 61.6791 121.651 59.7638 115.33C59.7049 115.142 59.3984 115.195 59.4515 115.395C65.3801 137.68 70.248 160.671 69.9121 183.838C69.8178 190.318 69.0635 196.686 68.4506 203.131C68.4329 203.301 68.7158 203.372 68.757 203.195C69.9828 197.674 70.3836 191.9 70.6134 186.267Z" fill="#EBEBEB"/>
<path d="M59.4519 115.389C59.4519 115.389 50.4646 138.145 52.4801 143.49C54.4898 148.84 58.6387 149.981 58.6387 149.981C58.6387 149.981 53.1402 157.813 56.9826 165.157C60.8251 172.502 69.3586 172.155 69.9244 180.481C69.9303 180.481 70.4017 145.665 59.4519 115.389Z" fill="#EBEBEB"/>
<path d="M68.9523 166.104C68.9641 166.069 68.9582 166.028 68.9405 165.986C67.6793 150.516 64.9272 135.093 60.2243 120.211C60.2125 120.17 60.1359 120.181 60.1477 120.228C61.9274 126.885 63.5128 133.576 64.8682 140.303C63.7013 139.103 62.175 138.415 60.5779 137.915C60.5484 137.904 60.5307 137.951 60.5602 137.962C62.2221 138.68 63.8133 139.509 64.9861 140.914C65.2513 142.231 65.5047 143.554 65.7522 144.871C63.7426 142.631 60.9609 141.52 58.1734 140.467C58.1321 140.45 58.1145 140.514 58.1498 140.526C61.0493 141.702 63.943 143.225 65.9113 145.718C66.595 149.493 67.1961 153.286 67.7147 157.084C66.2473 155.555 64.438 154.526 62.3577 154.021C62.2928 154.003 62.2575 154.097 62.3223 154.115C64.4557 154.726 66.2944 155.92 67.756 157.59C67.7677 157.602 67.7795 157.607 67.7913 157.613C67.974 158.948 68.139 160.289 68.2981 161.629C67.1666 160.665 65.9172 159.936 64.5441 159.372C64.5087 159.354 64.4852 159.413 64.5264 159.43C65.9231 160.024 67.1784 160.877 68.2864 161.912C68.304 161.923 68.3158 161.923 68.3335 161.929C68.4808 163.205 68.6341 164.481 68.7637 165.757C66.701 163.282 64.1551 161.488 61.1436 160.33C61.0847 160.306 61.0552 160.395 61.1083 160.424C64.0373 161.694 66.6185 163.711 68.6164 166.192C68.6694 166.263 68.7401 166.269 68.805 166.251C68.9994 168.209 69.1704 170.173 69.3177 172.137C69.3177 172.166 69.3648 172.166 69.3648 172.137C69.2587 170.126 69.1173 168.115 68.9523 166.104Z" fill="white"/>
<path d="M61.7323 135.658C60.1764 134.587 58.1963 134.135 56.334 133.976C56.2868 133.97 56.2868 134.041 56.3281 134.046C58.2611 134.335 59.8877 135.034 61.6674 135.787C61.7441 135.816 61.7971 135.705 61.7323 135.658Z" fill="white"/>
<path d="M62.8225 159.748C61.5908 159.007 60.1823 158.589 58.7679 158.366C58.7208 158.36 58.7149 158.437 58.762 158.442C60.1941 158.701 61.4671 159.213 62.7695 159.848C62.8284 159.871 62.8756 159.777 62.8225 159.748Z" fill="white"/>
<path d="M94.2344 143.866C90.4862 146.494 86.8913 149.528 83.8327 152.939C80.5736 156.573 78.1986 160.7 76.5367 165.281C73.1362 174.665 71.274 184.826 71.1031 194.798C71.0088 200.39 71.5038 205.935 72.706 211.398C72.7473 211.598 73.0479 211.539 73.0184 211.339C71.5509 201.725 71.604 191.917 73.1834 182.327C74.7275 172.913 77.1496 162.67 83.149 155.02C86.4139 150.857 90.4862 147.576 94.5114 144.189C94.7235 144.001 94.4524 143.713 94.2344 143.866Z" fill="#EBEBEB"/>
<path d="M72.4287 188.013C72.4287 188.013 75.5168 182.827 80.0075 178.346C84.5041 173.866 88.2877 170.679 88.8711 167.709C89.4545 164.746 84.3686 162.558 84.3686 162.558C84.3686 162.558 90.5861 163.67 92.2892 161.071C93.9924 158.466 94.8116 143.384 94.8116 143.384C94.8116 143.384 83.4964 151.445 78.2219 162.747C72.9591 174.042 72.4287 188.013 72.4287 188.013Z" fill="#EBEBEB"/>
<path d="M90.9051 147.247C86.1433 151.916 81.352 156.884 78.5468 163.017C77.5862 165.116 76.767 167.298 76.048 169.52C76.048 169.526 76.048 169.526 76.0421 169.532C75.8948 169.979 75.7534 170.42 75.6119 170.873C75.6001 170.896 75.5884 170.92 75.5884 170.943C74.2034 175.524 73.2251 180.257 72.3765 184.879C72.3706 184.908 72.4177 184.926 72.4236 184.897C72.9128 182.545 73.4491 180.169 74.0502 177.799C74.0738 177.799 74.0914 177.794 74.115 177.788C75.0756 177.382 76.048 177.129 77.0853 177.035C77.1501 177.029 77.1501 176.912 77.0794 176.917C76.0775 176.965 75.0933 177.141 74.1445 177.453C74.6926 175.318 75.2878 173.184 75.9596 171.085C78.1461 170.549 80.4268 170.261 82.6721 170.208C82.6957 170.208 82.7016 170.173 82.678 170.173C80.415 170.067 78.2875 170.261 76.0775 170.732C76.1954 170.373 76.3132 170.014 76.437 169.656C77.9103 169.321 79.3954 169.038 80.9041 168.903C80.9336 168.903 80.9277 168.856 80.9041 168.856C79.4249 168.897 77.9693 169.05 76.5313 169.385C77.1442 167.568 77.8101 165.775 78.5527 164.029C79.1656 162.582 79.8905 161.212 80.692 159.889C81.9001 159.619 83.0729 159.354 84.3164 159.242C84.3517 159.236 84.3458 159.183 84.3105 159.183C83.1849 159.113 82.0121 159.195 80.9218 159.519C81.517 158.56 82.1417 157.619 82.8136 156.708C85.3536 156.149 87.9231 155.626 90.5162 156.114C90.5633 156.12 90.5751 156.049 90.5338 156.038C88.0645 155.391 85.6129 155.761 83.1495 156.249C83.4206 155.891 83.6917 155.544 83.9687 155.191C85.5245 154.709 87.0745 154.479 88.7128 154.45C88.7482 154.45 88.7541 154.403 88.7187 154.397C87.2277 154.256 85.7367 154.397 84.2987 154.791C86.3967 152.192 88.7128 149.746 91.0053 147.329C91.0996 147.2 91.0171 147.135 90.9051 147.247Z" fill="white"/>
<path d="M90.7756 157.531C90.0331 157.455 89.2728 157.366 88.5244 157.455C88.436 157.466 88.4419 157.613 88.5303 157.613C89.2728 157.637 90.0213 157.578 90.7638 157.619C90.8287 157.619 90.8346 157.537 90.7756 157.531Z" fill="white"/>
<path d="M82.6309 172.166C81.4405 172.155 80.2559 172.472 79.1421 172.866C79.1126 172.878 79.1303 172.925 79.1598 172.913C80.309 172.637 81.4758 172.531 82.6427 172.337C82.737 172.319 82.7311 172.166 82.6309 172.166Z" fill="white"/>
<path d="M80.1906 167.11C79.7074 167.086 79.1829 167.168 78.7114 167.245C78.6643 167.251 78.6643 167.333 78.7173 167.333C79.2006 167.339 79.7251 167.357 80.2024 167.262C80.2849 167.245 80.279 167.115 80.1906 167.11Z" fill="white"/>
<path d="M39.2555 159.871C42.8976 161.136 46.5102 162.759 49.7751 164.811C53.2522 167.004 56.134 169.791 58.5385 173.113C63.4654 179.922 67.3255 187.719 69.7712 195.745C71.1444 200.249 72.0225 204.848 72.323 209.546C72.3348 209.716 72.0814 209.74 72.0578 209.569C71.0147 201.455 68.6986 193.529 65.2039 186.126C61.774 178.864 57.4365 171.138 50.8124 166.328C47.2056 163.711 43.151 161.994 39.1082 160.183C38.896 160.101 39.0434 159.801 39.2555 159.871Z" fill="#EBEBEB"/>
<path d="M67.1307 190.571C67.1307 190.571 63.4297 187.084 58.7563 184.497C54.0829 181.904 50.2758 180.199 49.1207 177.935C47.9597 175.671 51.5723 172.731 51.5723 172.731C51.5723 172.731 46.7988 175.065 44.8186 173.354C42.8384 171.637 38.6777 159.619 38.6777 159.619C38.6777 159.619 49.7042 163.535 56.5876 171.461C63.4651 179.387 67.1307 190.571 67.1307 190.571Z" fill="#EBEBEB"/>
<path d="M66.5527 188.096C61.0366 177.77 53.6817 168.427 43.5982 162.259C43.5923 162.259 43.5864 162.265 43.5923 162.265C46.2443 163.952 48.69 165.899 50.9707 168.027C48.9316 167.968 46.8513 168.298 45.042 169.274C45.0008 169.297 45.0303 169.35 45.0715 169.338C47.087 168.656 49.0259 168.209 51.1711 168.309C51.2006 168.309 51.2183 168.298 51.2418 168.286C51.6013 168.627 51.9549 168.968 52.3026 169.315C51.2418 169.362 50.1692 169.509 49.1379 169.732C49.1084 169.738 49.1202 169.779 49.1438 169.773C50.2635 169.556 51.3538 169.485 52.4912 169.497C54.3417 171.349 56.0626 173.331 57.6891 175.389C56.9525 175.283 56.1804 175.342 55.4732 175.548C55.4202 175.565 55.432 175.636 55.4909 175.63C56.2924 175.53 57.0585 175.542 57.8541 175.595C58.1547 175.977 58.4612 176.359 58.7558 176.747C56.4869 176.612 54.2651 176.829 52.0669 177.394C52.0315 177.4 52.0433 177.453 52.0787 177.447C54.3535 177 56.6401 176.859 58.9503 177C59.2332 177.37 59.4984 177.753 59.7754 178.129C58.4199 178.088 57.1116 178.258 55.7915 178.582C55.7384 178.593 55.7561 178.67 55.8092 178.664C57.1646 178.358 58.5437 178.276 59.9345 178.341C61.1191 179.969 62.2565 181.639 63.3467 183.327C62.7692 183.209 62.1622 183.274 61.5964 183.433C61.5669 183.439 61.5728 183.486 61.6082 183.48C62.2565 183.403 62.8635 183.486 63.5 183.568C64.4841 185.091 65.433 186.631 66.3405 188.184C66.4172 188.331 66.6293 188.231 66.5527 188.096Z" fill="white"/>
<path d="M57.9787 179.528C56.9003 179.434 55.8041 179.605 54.7728 179.916C54.7433 179.928 54.7492 179.969 54.7846 179.963C55.8454 179.769 56.8944 179.693 57.967 179.64C58.0436 179.64 58.0554 179.534 57.9787 179.528Z" fill="white"/>
<path d="M48.3613 166.945C47.8721 166.892 47.3653 166.951 46.882 167.033C46.8231 167.045 46.8408 167.128 46.8997 167.122C47.383 167.069 47.8662 167.086 48.3495 167.075C48.432 167.069 48.4438 166.951 48.3613 166.945Z" fill="white"/>
<path d="M81.3514 224.722H56.4639L60.0117 198.785L60.9192 192.135H76.8961L77.8036 198.785L81.3514 224.722Z" fill="#DBDBDB"/>
<path d="M77.8037 198.785H60.0117L60.9193 192.135H76.8961L77.8037 198.785Z" fill="#C7C7C7"/>
<path d="M79.177 189.83H58.6328V195.463H79.177V189.83Z" fill="#DBDBDB"/>
<path d="M40.6396 224.722L85.4349 224.581L130.23 224.528L219.821 224.428L309.411 224.528L354.206 224.581L399.001 224.722L354.206 224.869L309.411 224.916L219.821 225.016L130.23 224.916L85.4349 224.863L40.6396 224.722Z" fill="#263238"/>
<path d="M221 268.545C314.328 268.545 389.986 260.274 389.986 250.07C389.986 239.867 314.328 231.595 221 231.595C127.672 231.595 52.0146 239.867 52.0146 250.07C52.0146 260.274 127.672 268.545 221 268.545Z" fill="#EBEBEB"/>
<path d="M181.663 247.013C180.29 247.478 140.916 247.613 139.408 246.672C138.836 246.319 138.482 240.598 138.247 233.671C138.194 232.178 138.152 230.631 138.117 229.061L134.923 208.105L161.242 207.935L163.729 228.891L163.629 233.501C163.629 233.501 178.728 240.175 180.266 241.386C181.804 242.603 183.036 246.549 181.663 247.013Z" fill="#EB9481"/>
<path d="M181.663 247.013C180.29 247.478 140.916 247.613 139.408 246.672C138.712 246.237 138.335 237.881 138.123 229.067L163.735 228.903L163.635 233.513C163.635 233.513 178.734 240.186 180.272 241.398C181.804 242.603 183.036 246.548 181.663 247.013Z" fill="white"/>
<path d="M181.662 247.013C180.289 247.477 140.916 247.613 139.407 246.672C138.835 246.319 138.482 240.598 138.246 233.671L163.635 233.507C163.635 233.507 178.733 240.18 180.271 241.392C181.804 242.603 183.035 246.548 181.662 247.013Z" fill="#A6A6A6"/>
<path d="M181.091 245.443C174.491 245.302 147.853 245.367 141.317 245.731C141.264 245.731 141.264 245.772 141.317 245.772C147.859 246.055 174.491 245.772 181.091 245.549C181.233 245.543 181.233 245.443 181.091 245.443Z" fill="#263238"/>
<path d="M177.737 239.992C176.169 239.933 174.643 240.68 173.794 241.615C172.975 242.509 172.28 243.773 172.333 245.137C172.333 245.178 172.41 245.178 172.415 245.137C172.781 242.556 175.126 240.286 177.743 240.075C177.79 240.069 177.79 239.992 177.737 239.992Z" fill="#263238"/>
<path d="M166.198 234.159C163.558 234.13 160.499 235.071 158.861 237.235C158.796 237.317 158.92 237.405 158.996 237.364C161.383 236.129 163.646 235.206 166.245 234.483C166.428 234.43 166.387 234.159 166.198 234.159Z" fill="#263238"/>
<path d="M168.243 234.941C165.603 234.912 162.544 235.853 160.906 238.017C160.841 238.099 160.965 238.187 161.041 238.146C163.428 236.911 165.691 235.988 168.29 235.265C168.473 235.218 168.432 234.947 168.243 234.941Z" fill="#263238"/>
<path d="M170.282 235.729C167.642 235.7 164.583 236.641 162.945 238.805C162.88 238.887 163.004 238.975 163.08 238.934C165.467 237.699 167.73 236.776 170.329 236.053C170.512 236 170.471 235.729 170.282 235.729Z" fill="#263238"/>
<path d="M172.327 236.517C169.687 236.488 166.628 237.429 164.99 239.593C164.925 239.675 165.049 239.763 165.125 239.722C167.506 238.487 169.775 237.564 172.374 236.841C172.557 236.788 172.516 236.517 172.327 236.517Z" fill="#263238"/>
<path d="M142.978 239.469C140.014 239.487 140.038 244.085 143.008 244.067C145.972 244.044 145.949 239.451 142.978 239.469Z" fill="#263238"/>
<path d="M169.027 227.115C167.683 226.016 166.003 227.103 165.184 228.25C163.852 230.114 162.945 232.725 162.809 235C162.803 235.059 162.85 235.077 162.892 235.077C162.951 235.265 163.174 235.424 163.369 235.288C165.243 233.983 167.412 232.819 168.832 230.978C169.657 229.902 170.3 228.156 169.027 227.115ZM165.809 232.725C164.901 233.389 163.97 234.007 163.086 234.7C163.552 233.383 163.958 232.054 164.559 230.79C164.848 230.185 165.149 229.567 165.52 229.009C166.092 228.138 168.679 225.922 168.95 228.791C169.097 230.373 166.887 231.937 165.809 232.725Z" fill="#263238"/>
<path d="M156.25 236C158.554 236.347 160.923 235.682 163.18 235.324C163.416 235.288 163.469 235.018 163.375 234.841C163.41 234.812 163.422 234.771 163.381 234.73C161.701 233.189 159.232 231.937 156.98 231.507C155.59 231.243 153.621 231.625 153.421 233.348C153.232 234.977 154.906 235.8 156.25 236ZM154.647 234.506C152.849 232.254 156.25 232.06 157.269 232.289C157.923 232.442 158.572 232.672 159.196 232.913C160.511 233.413 161.725 234.089 162.98 234.712C161.86 234.818 160.758 235.024 159.644 235.171C158.312 235.347 155.637 235.747 154.647 234.506Z" fill="#263238"/>
<path d="M96.25 111.25C96.25 111.25 126.819 163.135 127.638 166.78C128.893 172.378 135.564 227.656 135.564 227.656L167.371 227.086C167.371 227.086 161.89 178.346 156.698 162.288C152.956 150.722 125.982 112.361 125.982 112.361L96.25 111.25Z" fill="#37474F"/>
<path d="M164.477 222.223C159.91 222.188 143.721 222.006 137.645 222.576C137.598 222.582 137.598 222.658 137.645 222.664C139.737 222.964 159.916 222.499 164.477 222.352C164.565 222.347 164.56 222.223 164.477 222.223Z" fill="#263238"/>
<path d="M101.466 116.013C103.469 119.147 105.585 122.216 107.63 125.327C109.681 128.437 111.72 131.548 113.735 134.682C117.761 140.938 121.686 147.259 125.534 153.621C127.337 156.602 129.058 159.619 130.302 162.87C131.527 166.093 132.364 169.45 132.983 172.831C133.608 176.236 134.014 179.675 134.403 183.115C134.816 186.778 135.223 190.436 135.635 194.099C136.472 201.59 137.309 209.081 138.152 216.572C138.252 217.49 138.358 218.413 138.446 219.33C138.458 219.465 138.216 219.489 138.199 219.354C137.262 211.91 136.484 204.448 135.635 196.992C135.211 193.282 134.786 189.571 134.368 185.861C133.973 182.41 133.602 178.958 133.066 175.524C132.541 172.155 131.852 168.797 130.826 165.534C129.754 162.124 128.227 158.925 126.43 155.826C122.746 149.482 118.845 143.249 114.944 137.028C111.007 130.754 107.041 124.503 102.921 118.341C102.414 117.583 101.902 116.824 101.371 116.077C101.324 116.007 101.43 115.954 101.466 116.013Z" fill="#263238"/>
<path d="M106.269 250.071C104.819 249.982 67.3726 234.847 66.3294 233.413C66.2941 233.366 66.2764 233.272 66.2705 233.136C66.2764 231.854 68.8695 227.356 71.0382 221.453C71.1738 221.076 72.1403 219.324 73.484 216.96C77.1732 210.475 83.6971 199.367 83.6971 199.367L108.172 209.069L96.4562 226.568L94.6351 230.802C94.6351 230.802 106.121 242.644 107.094 244.344C108.054 246.037 107.712 250.153 106.269 250.071Z" fill="#EB9481"/>
<path d="M106.269 250.071C104.819 249.983 67.3726 234.847 66.3294 233.413C66.2941 233.366 66.2764 233.272 66.2705 233.136C66.2764 231.854 68.8695 227.356 71.0382 221.453C71.1738 221.076 72.1403 219.324 73.484 216.96L96.4562 226.562L94.6351 230.796C94.6351 230.796 106.121 242.638 107.094 244.338C108.054 246.037 107.712 250.153 106.269 250.071Z" fill="white"/>
<path d="M106.268 250.071C104.819 249.988 67.3782 234.847 66.3351 233.413C65.9403 232.872 67.614 227.768 71.0439 221.458L94.6349 230.808C94.6349 230.808 106.121 242.644 107.093 244.343C108.054 246.037 107.712 250.153 106.268 250.071Z" fill="#A6A6A6"/>
<path d="M106.327 248.401C100.262 245.802 75.5458 235.888 69.3519 233.783C69.2989 233.765 69.2871 233.801 69.3342 233.824C75.2924 236.529 100.086 246.243 106.285 248.507C106.421 248.548 106.456 248.454 106.327 248.401Z" fill="#263238"/>
<path d="M105.265 242.091C103.833 241.451 102.142 241.574 100.998 242.121C99.9022 242.644 98.7824 243.55 98.3168 244.837C98.3051 244.873 98.3699 244.902 98.3935 244.867C99.7018 242.615 102.731 241.386 105.236 242.168C105.289 242.186 105.312 242.115 105.265 242.091Z" fill="#263238"/>
<path d="M96.7618 232.366C94.322 231.349 91.1337 231.078 88.8058 232.472C88.7174 232.525 88.794 232.654 88.8824 232.642C91.558 232.389 94.0037 232.384 96.6852 232.683C96.8738 232.707 96.9386 232.436 96.7618 232.366Z" fill="#263238"/>
<path d="M98.3585 233.86C95.9186 232.842 92.7304 232.572 90.4025 233.965C90.3141 234.018 90.3907 234.148 90.4791 234.136C93.1547 233.883 95.6004 233.877 98.2819 234.177C98.4705 234.195 98.5353 233.93 98.3585 233.86Z" fill="#263238"/>
<path d="M99.962 235.353C97.5222 234.342 94.3339 234.065 92.006 235.459C91.9176 235.512 91.9942 235.641 92.0826 235.629C94.7582 235.376 97.2039 235.371 99.8854 235.67C100.068 235.688 100.133 235.424 99.962 235.353Z" fill="#263238"/>
<path d="M101.559 236.847C99.1188 235.829 95.9305 235.559 93.6027 236.952C93.5143 237.005 93.5909 237.135 93.6793 237.123C96.3549 236.87 98.8006 236.864 101.482 237.164C101.665 237.182 101.73 236.917 101.559 236.847Z" fill="#263238"/>
<path d="M73.2416 228.597C70.4894 227.503 68.7803 231.772 71.5384 232.866C74.2965 233.959 75.9997 229.691 73.2416 228.597Z" fill="#263238"/>
<path d="M102.036 226.897C101.205 225.375 99.2428 225.751 98.0464 226.515C96.1134 227.744 94.2924 229.826 93.3082 231.884C93.2846 231.937 93.3141 231.972 93.3553 231.984C93.3377 232.178 93.485 232.413 93.7148 232.36C95.9425 231.854 98.3941 231.584 100.398 230.414C101.571 229.72 102.82 228.338 102.036 226.897ZM96.9385 230.89C95.8482 231.166 94.7521 231.39 93.6677 231.701C94.5929 230.655 95.471 229.579 96.5083 228.626C97.0033 228.173 97.516 227.715 98.0641 227.333C98.9186 226.739 102.148 225.657 101.323 228.414C100.875 229.943 98.2409 230.561 96.9385 230.89Z" fill="#263238"/>
<path d="M86.8496 230.349C88.8533 231.531 91.299 231.801 93.5267 232.319C93.7565 232.372 93.9098 232.142 93.8921 231.948C93.9333 231.937 93.9628 231.901 93.9392 231.848C92.9609 229.79 91.1458 227.703 89.2128 226.468C88.0223 225.704 86.054 225.322 85.223 226.839C84.4333 228.273 85.6768 229.661 86.8496 230.349ZM85.9302 228.362C85.111 225.598 88.3406 226.692 89.1951 227.291C89.7432 227.674 90.2559 228.132 90.7509 228.591C91.7823 229.543 92.6545 230.625 93.5797 231.672C92.5013 231.354 91.4051 231.131 90.3148 230.849C89.0124 230.514 86.3781 229.884 85.9302 228.362Z" fill="#263238"/>
<path d="M98.3483 225.592L70.9502 214.555C70.9502 214.555 104.919 164.728 105.167 161.018C105.391 157.731 90.4689 129.143 89.8796 120.811C89.2431 111.82 93.5865 104.858 98.3542 100.542L126.619 112.526C126.619 112.526 123.637 117.288 118.94 119.934C118.94 119.934 133.431 152.98 132.612 163.141C131.781 173.36 98.3483 225.592 98.3483 225.592Z" fill="#37474F"/>
<path d="M99.5624 220.394C95.6021 218.695 96.7631 219.124 92.7792 217.472C90.8285 216.661 78.0282 211.351 76.0775 210.916C76.0362 210.904 76.0068 210.975 76.0421 210.998C77.7453 212.039 90.6399 217.125 92.6083 217.901C96.6217 219.477 95.4843 218.983 99.5153 220.518C99.5919 220.536 99.6391 220.424 99.5624 220.394Z" fill="#263238"/>
<path d="M123.59 119.329C120.643 119.958 117.756 120.999 114.98 122.116C114.874 122.157 114.921 122.322 115.039 122.287C117.927 121.446 120.867 120.658 123.702 119.664C123.926 119.588 123.814 119.282 123.59 119.329Z" fill="#263238"/>
<path d="M120.237 118.171C119.96 118.653 119.724 119.164 119.512 119.682C119.347 120.082 119.141 120.511 119.141 120.946C119.141 121.028 119.253 121.052 119.306 120.999C119.636 120.675 119.807 120.205 120.013 119.805C120.254 119.341 120.502 118.876 120.732 118.406C120.885 118.094 120.408 117.871 120.237 118.171Z" fill="#263238"/>
<path d="M120.578 115.519C120.749 115.084 120.926 114.654 121.109 114.219C121.297 113.772 121.515 113.337 121.674 112.879C121.698 112.808 121.816 112.855 121.786 112.926C121.616 113.361 121.504 113.825 121.362 114.272C121.221 114.719 121.079 115.166 120.926 115.613C120.649 116.442 120.313 117.265 119.954 118.065C120.413 118.059 120.891 118.041 121.309 117.83C121.763 117.6 122.04 117.118 122.264 116.683C122.511 116.195 122.741 115.701 123 115.219C123.283 114.684 123.596 114.16 123.784 113.584C123.808 113.514 123.92 113.561 123.896 113.631C123.472 114.819 123.054 116.013 122.388 117.106C122.128 117.536 121.916 117.988 121.439 118.153C120.926 118.335 120.36 118.3 119.824 118.259C119.759 118.277 119.671 118.235 119.694 118.153C119.954 117.277 120.237 116.377 120.578 115.519Z" fill="#263238"/>
<path d="M119.375 121.011C120.377 123.133 121.261 125.25 122.204 127.367C123.123 129.437 123.978 131.53 124.815 133.629C126.5 137.88 128.009 142.208 129.335 146.583C129.989 148.747 130.596 150.928 131.138 153.121C131.686 155.32 132.217 157.543 132.447 159.807C132.676 162.076 132.511 164.317 131.881 166.51C131.238 168.733 130.39 170.679 129.388 172.76C128.775 174.031 128.563 173.86 128.858 173.219C129.7 171.396 131.91 165.875 131.751 161.236C131.675 158.995 131.215 156.79 130.708 154.615C130.189 152.392 129.606 150.187 128.97 148C127.714 143.684 126.223 139.456 124.691 135.234C123.831 132.871 122.911 130.53 122.039 128.167C121.161 125.791 120.253 123.651 119.281 121.052C119.246 120.987 119.346 120.946 119.375 121.011Z" fill="#263238"/>
<path d="M98.5783 113.996C99.0675 113.814 99.7511 114.114 100.252 114.196C100.894 114.302 101.543 114.366 102.191 114.39C102.833 114.413 103.476 114.384 104.118 114.325C104.755 114.266 105.409 114.184 105.963 113.837C106.9 113.255 107.678 112.232 108.314 111.344C109.01 110.374 109.734 109.257 110.147 108.134C110.17 108.063 110.271 108.11 110.253 108.181C110.047 108.833 109.894 109.498 109.628 110.139C109.381 110.738 109.063 111.315 108.727 111.873C108.096 112.908 107.371 114.019 106.287 114.637C105.149 115.284 103.688 115.242 102.415 115.172C101.684 115.131 100.953 115.031 100.234 114.884C99.7157 114.772 98.8435 114.69 98.5135 114.237C98.4487 114.155 98.484 114.031 98.5783 113.996Z" fill="#263238"/>
<path d="M78.7712 209.346C83.2737 202.549 87.6937 195.693 92.0312 188.789C96.3805 181.869 100.653 174.895 104.867 167.886C105.875 166.21 107.036 164.534 107.684 162.676C108.391 160.66 107.99 158.701 107.348 156.726C106.175 153.104 104.72 149.582 103.14 146.118C101.561 142.643 99.8576 139.227 98.1839 135.799C96.5219 132.4 94.7598 128.984 93.4986 125.409C92.2964 121.993 91.8367 118.453 92.762 114.913C93.6754 111.397 95.6556 108.245 97.7242 105.299C98.2723 104.523 98.8262 103.753 99.3743 102.977C99.4156 102.918 99.504 102.988 99.4627 103.047C97.182 106.117 94.9602 109.368 93.6224 112.973C92.9624 114.754 92.5321 116.63 92.4909 118.529C92.4496 120.458 92.8091 122.375 93.3808 124.215C94.4887 127.79 96.2391 131.177 97.8715 134.535C99.5393 137.969 101.248 141.379 102.857 144.842C104.472 148.323 105.987 151.863 107.23 155.497C107.784 157.114 108.403 158.807 108.362 160.542C108.32 162.441 107.413 164.152 106.47 165.752C102.374 172.725 98.119 179.605 93.8169 186.449C89.4971 193.317 85.0889 200.138 80.6099 206.906C80.0442 207.758 79.4784 208.611 78.9126 209.464C78.8537 209.575 78.7005 209.452 78.7712 209.346Z" fill="#263238"/>
<path d="M128.186 80.8324C130.738 86.4184 143.621 94.1153 149.655 94.9444C153.999 95.5383 167.182 95.7441 171.702 95.0561C177 94.2505 172.952 79.9857 169.822 80.3502C161.218 81.3557 153.91 82.4729 151.618 82.4729C148.813 82.4729 133.637 77.6101 131.804 76.9281C127.331 75.2523 126.742 77.6631 128.186 80.8324Z" fill="#EB9481"/>
<path d="M128.268 82.3073C131.498 87.076 142.235 94.8728 142.235 94.8728L143.726 91.58L148.659 80.6962C148.659 80.6962 138.8 77.5915 132.311 76.2097C131.433 76.0216 130.661 75.9099 129.989 75.8805C125.84 75.6511 125.481 78.2089 128.268 82.3073Z" fill="#B5D6DF"/>
<path d="M128.268 82.3083C131.498 87.077 142.235 94.8739 142.235 94.8739L143.726 91.5811C139.725 86.9418 133.543 79.9152 129.989 75.8756C125.84 75.6522 125.481 78.21 128.268 82.3083Z" fill="#263238"/>
<path d="M140.296 92.6748C141.115 90.6756 144.757 82.6024 145.665 80.909C145.73 80.7914 145.818 80.8031 145.765 80.9325C143.455 86.983 141.274 90.7815 140.373 92.7042C140.355 92.7454 140.273 92.7219 140.296 92.6748Z" fill="#263238"/>
<path d="M168.249 80.503C173.488 79.8151 179.965 78.645 185.446 80.9676C186.524 81.4203 186.913 82.2259 186.913 82.2259C189.388 83.2255 189.66 84.6896 189.66 84.6896C191.681 86.3242 191.752 87.8648 191.752 87.8648C191.752 87.8648 194.645 89.0702 194.209 90.9341C193.726 93.0274 189.754 90.9283 186.86 91.1047C180.236 91.5104 170.93 93.9388 169.033 94.2505L168.249 80.503Z" fill="#EB9481"/>
<path d="M179.617 86.6651C181.568 86.5828 183.483 86.4535 185.44 86.6357C187.585 86.8357 189.612 87.3884 191.687 87.8999C191.752 87.9176 191.781 87.8294 191.716 87.8C188.098 86.2829 183.46 85.8831 179.611 86.5769C179.523 86.5946 179.523 86.671 179.617 86.6651Z" fill="#263238"/>
<path d="M178.791 82.714C180.695 82.7375 184.042 82.8081 189.641 84.7544C189.659 84.7602 189.676 84.7308 189.659 84.725C186.193 82.9786 182.64 82.3553 178.797 82.6258C178.674 82.6317 178.662 82.7081 178.791 82.714Z" fill="#263238"/>
<path d="M178.386 80.5795C181.621 80.7441 183.643 81.2615 186.896 82.2376C186.913 82.2435 186.931 82.2141 186.907 82.2023C183.324 80.703 181.857 80.5677 178.374 80.4678C178.256 80.4619 178.262 80.5736 178.386 80.5795Z" fill="#263238"/>
<path d="M178.91 92.1042C178.068 92.4982 178.268 92.9392 179.883 93.3155C181.509 93.6977 188.181 93.7977 187.945 96.1203C187.715 98.4547 178.274 98.1548 175.64 97.3316C173.005 96.5143 169.033 94.2504 169.033 94.2504C170.884 93.9388 175.292 92.7569 178.91 92.1042Z" fill="#EB9481"/>
<path d="M135.193 89.7346C135.152 90.7401 135.052 91.7632 134.91 92.7745C134.922 92.7393 134.94 92.704 134.952 92.6687C135.146 92.1395 135.34 91.5985 135.576 91.087C135.588 91.0576 135.635 91.0693 135.629 91.0987C135.523 91.6515 135.329 92.2101 135.117 92.7334C135.016 92.9862 134.91 93.2332 134.804 93.4801C134.733 93.9329 134.651 94.3798 134.557 94.8208C134.38 95.6616 133.584 99.2367 133.407 99.8423C133.372 99.9717 133.219 99.9423 133.225 99.8011C133.266 99.1426 133.938 95.4147 134.073 94.5738C134.333 92.9568 134.692 91.3045 135.122 89.7228C135.14 89.6817 135.199 89.7052 135.193 89.7346Z" fill="#263238"/>
<path d="M129.053 116.471C127.479 117.282 125.452 118.535 116.317 116.736C115.745 116.618 115.174 116.483 114.596 116.306C106.033 113.737 95.7553 103.688 95.1777 102.982C95.1777 102.982 108.78 80.9734 126.183 74.0526C128.334 73.2 131.893 74.8464 133.867 76.8985C134.569 77.6335 136.101 83.0314 135.512 87.4061C134.922 91.7808 130.632 115.665 129.053 116.471Z" fill="#B5D6DF"/>
<path d="M127.838 87.2122C127.885 87.6826 127.85 88.1471 127.791 88.6057C127.72 89.0644 127.632 89.5171 127.455 89.9581C127.402 89.4877 127.443 89.0232 127.502 88.5646C127.567 88.1059 127.655 87.6532 127.838 87.2122Z" fill="white"/>
<path d="M121.903 102.2C121.95 102.671 121.914 103.135 121.856 103.594C121.785 104.052 121.696 104.505 121.52 104.946C121.467 104.476 121.508 104.011 121.567 103.553C121.637 103.094 121.726 102.641 121.903 102.2Z" fill="white"/>
<path d="M111.82 90.8694C111.867 91.3398 111.831 91.8043 111.772 92.263C111.702 92.7216 111.613 93.1744 111.437 93.6154C111.384 93.145 111.425 92.6804 111.484 92.2218C111.549 91.7632 111.643 91.3104 111.82 90.8694Z" fill="white"/>
<path d="M131.721 101.436C131.768 101.906 131.733 102.371 131.674 102.829C131.603 103.288 131.515 103.741 131.338 104.182C131.285 103.711 131.326 103.247 131.385 102.788C131.456 102.33 131.544 101.877 131.721 101.436Z" fill="white"/>
<path d="M118.774 88.929C119.246 88.882 119.711 88.9173 120.171 88.9761C120.631 89.0466 121.085 89.1348 121.527 89.3112C121.055 89.3641 120.59 89.323 120.13 89.2642C119.67 89.1936 119.216 89.1054 118.774 88.929Z" fill="white"/>
<path d="M107.329 99.7542C107.801 99.7072 108.266 99.7425 108.726 99.8013C109.186 99.8718 109.639 99.96 110.081 100.136C109.61 100.189 109.144 100.148 108.685 100.089C108.225 100.025 107.771 99.9306 107.329 99.7542Z" fill="white"/>
<path d="M120.789 111.473C121.261 111.426 121.726 111.461 122.186 111.52C122.645 111.591 123.099 111.679 123.541 111.855C123.07 111.908 122.604 111.867 122.145 111.808C121.685 111.743 121.231 111.655 120.789 111.473Z" fill="white"/>
<path d="M103.799 107.216C104.27 107.169 104.736 107.204 105.196 107.263C105.655 107.333 106.109 107.422 106.551 107.598C106.08 107.651 105.614 107.61 105.154 107.551C104.695 107.486 104.241 107.392 103.799 107.216Z" fill="white"/>
<path d="M127.749 76.6751C128.22 76.6281 128.686 76.6634 129.146 76.7222C129.605 76.7927 130.059 76.8809 130.501 77.0573C130.03 77.1102 129.564 77.0691 129.104 77.0103C128.645 76.9456 128.191 76.8515 127.749 76.6751Z" fill="white"/>
<path d="M124.42 80.4265C124.119 80.797 123.766 81.0968 123.4 81.3791C123.029 81.6554 122.646 81.9083 122.204 82.0964C122.505 81.726 122.858 81.4261 123.224 81.1439C123.601 80.8734 123.984 80.6147 124.42 80.4265Z" fill="white"/>
<path d="M106.274 91.0869C105.974 91.4574 105.62 91.7572 105.255 92.0395C104.884 92.3158 104.501 92.5687 104.059 92.7568C104.359 92.3864 104.713 92.0865 105.078 91.8043C105.449 91.5279 105.838 91.2692 106.274 91.0869Z" fill="white"/>
<path d="M128.934 95.8967C128.633 96.2672 128.28 96.5671 127.914 96.8493C127.543 97.1257 127.16 97.3785 126.718 97.5666C127.018 97.1962 127.372 96.8963 127.737 96.6141C128.109 96.3436 128.492 96.0849 128.934 95.8967Z" fill="white"/>
<path d="M114.26 105.117C113.959 105.487 113.606 105.787 113.24 106.069C112.869 106.346 112.486 106.598 112.044 106.787C112.345 106.416 112.698 106.116 113.063 105.834C113.435 105.564 113.818 105.305 114.26 105.117Z" fill="white"/>
<path d="M134.557 83.3018C134.256 83.6722 133.903 83.9721 133.537 84.2543C133.166 84.5307 132.783 84.7835 132.341 84.9717C132.641 84.6012 132.995 84.3014 133.36 84.0191C133.732 83.7428 134.115 83.4899 134.557 83.3018Z" fill="white"/>
<path d="M134.25 93.9858C133.879 93.6859 133.578 93.3331 133.295 92.9685C133.018 92.5981 132.765 92.2159 132.576 91.7749C132.947 92.0748 133.248 92.4276 133.531 92.7921C133.802 93.1685 134.061 93.5507 134.25 93.9858Z" fill="white"/>
<path d="M101.542 101.348C101.171 101.048 100.87 100.695 100.587 100.33C100.31 99.9599 100.057 99.5777 99.8682 99.1367C100.239 99.4366 100.54 99.7894 100.823 100.154C101.1 100.524 101.353 100.907 101.542 101.348Z" fill="white"/>
<path d="M130.272 110.103C129.901 109.803 129.6 109.45 129.318 109.086C129.041 108.715 128.787 108.333 128.599 107.892C128.97 108.192 129.27 108.545 129.553 108.909C129.83 109.286 130.084 109.668 130.272 110.103Z" fill="white"/>
<path d="M115.874 85.1423C115.503 84.8424 115.202 84.4896 114.919 84.125C114.642 83.7546 114.389 83.3724 114.2 82.9314C114.571 83.2313 114.872 83.5841 115.155 83.9486C115.426 84.325 115.685 84.7072 115.874 85.1423Z" fill="white"/>
<path d="M116.128 115.089C115.757 114.789 115.456 114.436 115.173 114.072C114.896 113.701 114.643 113.319 114.454 112.878C114.825 113.178 115.126 113.531 115.409 113.895C115.686 114.272 115.939 114.654 116.128 115.089Z" fill="white"/>
<path d="M118.573 97.4257C118.202 97.1258 117.901 96.7731 117.618 96.4085C117.341 96.0381 117.088 95.6558 116.899 95.2148C117.271 95.5147 117.571 95.8675 117.854 96.2321C118.131 96.6025 118.39 96.9906 118.573 97.4257Z" fill="white"/>
<path d="M130.673 82.7611C128.457 82.3495 126.365 77.7689 126.1 74.6878C126.082 74.4761 127.137 72.8003 128.322 70.7012C129.035 69.4252 129.801 67.9846 130.402 66.6263C130.526 66.3441 131.251 67.279 131.251 67.279L132.83 68.4844L138.046 72.4769C138.046 72.4769 135.936 74.9642 134.899 77.3456C134.816 77.5455 134.751 77.7395 134.71 77.9336C134.704 77.963 134.698 77.9924 134.681 78.0335C134.398 79.1625 132.812 83.155 130.673 82.7611Z" fill="#EB9481"/>
<path d="M134.722 77.9276C134.716 77.957 134.71 77.9864 134.692 78.0276C134.409 77.9453 134.109 77.8335 133.79 77.6865C128.08 75.017 130.596 67.3789 130.596 67.3789L132.83 68.4843L138.045 72.4769C138.045 72.4769 135.936 74.9641 134.898 77.3455C134.822 77.5395 134.763 77.7336 134.722 77.9276Z" fill="#263238"/>
<path d="M144.045 56.2009C144.045 56.2009 146.656 57.8532 146.673 60.7932C146.691 63.7332 145.518 66.6085 145.247 66.7085C144.976 66.8084 144.045 56.2009 144.045 56.2009Z" fill="#263238"/>
<path d="M131.091 57.7298C129.524 60.8227 129.6 70.5482 131.563 73.0531C134.403 76.6869 139.872 77.9394 143.178 74.3467C146.379 70.8657 146.054 58.1884 143.785 55.8247C140.45 52.3437 133.413 53.161 131.091 57.7298Z" fill="#EB9481"/>
<path d="M139.414 65.5208C139.408 65.4973 139.361 65.5561 139.367 65.5796C139.402 66.2441 139.331 67.0085 138.736 67.2437C138.719 67.2496 138.719 67.2848 138.742 67.279C139.473 67.1614 139.555 66.1441 139.414 65.5208Z" fill="#263238"/>
<path d="M138.807 64.8447C137.734 64.7859 137.705 66.9321 138.695 66.9791C139.667 67.0321 139.703 64.8917 138.807 64.8447Z" fill="#263238"/>
<path d="M143.05 65.4973C143.056 65.4738 143.103 65.5267 143.103 65.5561C143.074 66.2206 143.144 66.985 143.746 67.2143C143.763 67.2202 143.763 67.2554 143.74 67.2496C143.003 67.1378 142.915 66.1206 143.05 65.4973Z" fill="#263238"/>
<path d="M143.657 64.8152C144.73 64.7505 144.777 66.8908 143.787 66.9496C142.808 67.0084 142.761 64.8681 143.657 64.8152Z" fill="#263238"/>
<path d="M138.135 63.2158C138.429 63.1453 138.689 63.0336 138.972 62.9395C139.29 62.8278 139.555 62.7748 139.767 62.4926C139.879 62.3397 139.838 62.0692 139.702 61.9458C139.384 61.6576 138.96 61.6929 138.571 61.8105C138.146 61.9399 137.852 62.1457 137.604 62.5102C137.369 62.8572 137.746 63.304 138.135 63.2158Z" fill="#263238"/>
<path d="M144.4 64.1624C144.105 64.1095 143.84 64.0095 143.551 63.9272C143.227 63.8331 142.956 63.7919 142.732 63.5215C142.608 63.3745 142.638 63.104 142.768 62.9687C143.068 62.663 143.492 62.6806 143.893 62.7747C144.323 62.8805 144.624 63.0687 144.895 63.4215C145.148 63.7684 144.789 64.2329 144.4 64.1624Z" fill="#263238"/>
<path d="M137.899 71.8067C138.058 71.9654 138.211 72.183 138.452 72.2065C138.682 72.23 138.953 72.1301 139.171 72.0536C139.195 72.0478 139.213 72.0713 139.201 72.0889C139.024 72.3418 138.659 72.4946 138.352 72.4358C138.052 72.377 137.91 72.1183 137.84 71.842C137.828 71.7949 137.881 71.7832 137.899 71.8067Z" fill="#263238"/>
<path d="M141.758 68.9723C141.758 68.9723 141.788 69.966 141.735 70.4247C141.729 70.4658 140.426 70.213 139.024 70.5187C138.812 70.5658 138.835 70.3953 139.077 70.2835C139.566 70.0601 140.179 69.8484 141.381 69.9778C141.428 69.8543 141.31 68.449 141.381 68.4549C141.635 68.4607 142.118 68.6842 142.407 68.8077C142.407 66.7379 142.077 64.6858 142.106 62.6278C142.106 62.5513 142.218 62.5455 142.23 62.6101C142.731 64.7387 142.778 67.1201 142.837 69.2545C142.849 69.5191 141.935 69.0664 141.758 68.9723Z" fill="#263238"/>
<path d="M140.434 70.0719C140.434 70.0719 139.968 71.2362 139.196 71.5478C138.306 71.9065 138 71.101 138.907 70.3895C139.39 70.019 140.434 70.0719 140.434 70.0719Z" fill="#263238"/>
<path d="M139.508 71.3656C139.408 71.442 139.308 71.5067 139.196 71.5479C138.377 71.8772 138.053 71.2245 138.713 70.5659C139.161 70.6012 139.65 70.7658 139.508 71.3656Z" fill="#FF99BA"/>
<path d="M130.644 66.05C131.722 66.3793 132.96 63.1453 133.313 61.9046C133.62 60.8109 133.979 57.3358 134.032 57.0948C134.085 56.8596 138.729 60.17 141.446 59.3762C144.163 58.5824 145.978 56.154 146.013 55.0191C146.049 53.8843 142.678 51.0031 139.761 50.8561C136.843 50.7091 132.895 54.4076 132.895 54.4076C132.895 54.4076 134.238 52.8082 134.191 52.6789C134.144 52.5495 132.258 53.3022 131.911 54.6369C131.911 54.6369 132.282 52.9552 132.14 52.9258C131.999 52.8964 130.532 54.337 130.862 55.4248C130.862 55.4248 129.164 56.889 129.011 58.4942C128.852 60.1053 129.376 65.6619 130.644 66.05Z" fill="#263238"/>
<path d="M143.373 58.8116C142.548 59.1879 141.717 59.6054 140.809 59.7289C139.825 59.8583 138.8 59.6113 137.88 59.2585C136.943 58.8998 136.089 58.3765 135.311 57.7415C134.633 57.1829 134.026 56.5125 133.301 56.0127C133.118 55.8893 132.912 56.148 133.018 56.3185C134.12 57.9649 136.071 59.3467 137.945 59.9406C139.919 60.5639 141.782 60.1287 143.379 58.8351C143.39 58.8293 143.385 58.8057 143.373 58.8116Z" fill="#263238"/>
<path d="M131.769 65.7618C131.769 65.7618 130.095 62.375 128.587 62.9218C127.078 63.4686 128.009 68.155 129.547 69.0076C131.085 69.8661 131.91 68.4608 131.91 68.4608L131.769 65.7618Z" fill="#EB9481"/>
<path d="M128.888 64.2565C128.864 64.2506 128.852 64.2859 128.87 64.2977C129.942 64.9386 130.384 66.0911 130.638 67.2494C130.361 66.7732 129.937 66.4733 129.306 66.7908C129.271 66.8084 129.294 66.8614 129.33 66.8555C129.813 66.8261 130.143 66.9613 130.396 67.3847C130.579 67.6846 130.679 68.0432 130.797 68.3725C130.832 68.4842 131.027 68.4548 131.009 68.3314C131.009 68.3196 131.003 68.3137 131.003 68.302C131.257 66.8614 130.432 64.6446 128.888 64.2565Z" fill="#263238"/>
<path d="M120.718 80.8854C119.563 87.5474 126.777 109.991 131.415 114.184C138.316 120.417 151.075 124.515 155.701 125.85C157.717 126.432 163.292 112.285 161.253 111.35C156.886 109.356 143.319 105.134 142.04 104.047C140.761 102.965 132.965 91.7693 129.499 85.3189C124.855 76.6577 121.302 77.5161 120.718 80.8854Z" fill="#EB9481"/>
<path d="M157.816 110.103C157.816 110.103 163.833 111.632 167.723 112.82C169.891 113.478 173.51 114.948 174.883 116.159C176.934 117.976 184.348 126.867 182.226 128.707C180.305 130.371 174.907 121.922 174.907 121.922C174.907 121.922 181.106 129.966 178.425 131.547C175.743 133.129 170.917 122.774 170.917 122.774C170.917 122.774 177.105 131.183 174.076 132.376C171.789 133.276 166.886 124.144 166.886 124.144C166.886 124.144 172.154 131.406 169.844 132.435C167.292 133.57 162.236 125.426 162.236 125.426C155.918 127.055 152.247 125.25 149.783 123.656C149.188 123.28 157.816 110.103 157.816 110.103Z" fill="#EB9481"/>
<path d="M172.938 119.005C173.698 119.923 174.476 120.852 175.159 121.834C175.837 122.816 176.48 123.827 177.063 124.868C178.495 127.426 178.99 129.248 178.949 129.137C177.935 126.549 175.56 122.992 174.882 122.01C174.205 121.028 173.58 120.011 172.902 119.029C172.885 119.005 172.92 118.982 172.938 119.005Z" fill="#263238"/>
<path d="M169.338 121.387C170.646 122.422 173.386 126.273 174.447 128.848C174.494 128.954 174.435 128.948 174.371 128.848C173.54 127.572 170.198 122.633 169.308 121.404C169.291 121.387 169.32 121.369 169.338 121.387Z" fill="#263238"/>
<path d="M165.878 122.875C167.393 124.368 168.66 126.408 169.662 128.766C169.709 128.872 169.62 128.854 169.561 128.754C168.341 126.773 167.399 125.209 165.819 122.922C165.79 122.892 165.843 122.839 165.878 122.875Z" fill="#263238"/>
<path d="M127.278 81.3733C121.898 73.7822 118.68 76.5929 119.758 84.8366C120.766 92.5453 123.477 101.73 123.477 101.73L137.055 95.1678C137.055 95.1678 130.72 86.2361 127.278 81.3733Z" fill="#B5D6DF"/>
<path d="M130.568 84.3604C130.762 84.7955 130.863 85.2424 130.951 85.701C131.028 86.1537 131.081 86.6183 131.045 87.0887C130.851 86.6535 130.745 86.2067 130.662 85.748C130.586 85.2953 130.532 84.8308 130.568 84.3604Z" fill="white"/>
<path d="M122.535 88.9762C122.971 88.7822 123.425 88.6822 123.879 88.594C124.333 88.5176 124.798 88.4647 125.27 88.4999C124.834 88.694 124.386 88.7998 123.926 88.8821C123.466 88.9586 123.007 89.0115 122.535 88.9762Z" fill="white"/>
<path d="M122.882 77.1692C122.711 77.6102 122.464 78.0041 122.205 78.3863C121.933 78.7627 121.645 79.1213 121.285 79.433C121.456 78.992 121.704 78.598 121.963 78.2158C122.234 77.8395 122.523 77.4808 122.882 77.1692Z" fill="white"/>
<path d="M134.339 92.5217C134.168 92.9627 133.921 93.3567 133.662 93.7389C133.39 94.1152 133.102 94.4739 132.742 94.7855C132.913 94.3445 133.161 93.9506 133.42 93.5684C133.691 93.1979 133.98 92.8334 134.339 92.5217Z" fill="white"/>
<path d="M124.945 97.126C124.503 96.9554 124.108 96.7085 123.725 96.4498C123.348 96.1793 122.988 95.8912 122.676 95.5325C123.118 95.703 123.513 95.9499 123.896 96.2087C124.273 96.4792 124.632 96.7673 124.945 97.126Z" fill="white"/>
<path d="M129.081 83.6605C129.806 84.6542 130.555 85.6244 131.297 86.6005C131.109 86.1066 130.944 85.6126 130.796 85.1011C130.79 85.0776 130.826 85.0658 130.832 85.0893C130.985 85.4774 131.15 85.8655 131.297 86.2536C131.368 86.4417 131.439 86.6299 131.509 86.818C131.527 86.8592 131.539 86.9004 131.557 86.9415C132.14 87.7 132.718 88.4644 133.272 89.2406C133.937 90.1638 134.58 91.1104 135.228 92.0512C135.894 93.0214 136.531 94.1622 137.232 95.1088C137.291 95.1912 136.03 95.6968 135.912 95.7674C135.794 95.8321 135.711 95.7204 135.835 95.6792C135.953 95.6439 136.955 95.0324 136.967 95.0148C136.318 94.0681 135.57 93.192 134.892 92.2629C134.22 91.3398 133.543 90.4225 132.888 89.4817C131.562 87.5766 130.343 85.6009 129.028 83.6899C129.028 83.6605 129.064 83.637 129.081 83.6605Z" fill="#263238"/>
<path d="M120.094 90.2933C120.3 90.6931 120.524 91.0929 120.707 91.5045C120.784 91.6751 120.854 91.8456 120.931 92.0161C120.618 90.5461 120.318 89.082 120.017 87.612C120.011 87.5943 120.041 87.5885 120.047 87.6061C120.672 89.9875 121.296 92.363 121.874 94.7562C122.428 97.0376 123.088 99.3426 123.406 101.671C123.595 101.606 124.65 101.171 124.679 101.242C124.708 101.312 123.3 101.977 123.276 101.918C122.51 99.6484 122.033 97.0612 121.508 94.7268C121.361 94.0682 121.226 93.4097 121.084 92.7452C120.931 92.3454 120.748 91.9632 120.565 91.581C120.371 91.1694 120.218 90.746 120.053 90.3227C120.041 90.2874 120.082 90.2639 120.094 90.2933Z" fill="#263238"/>
<path d="M123.695 99.4602C125.581 98.396 133.46 94.327 135.228 93.5626C135.352 93.5097 135.417 93.5744 135.293 93.6449C129.718 96.9612 125.646 98.5841 123.742 99.5367C123.689 99.5543 123.642 99.4896 123.695 99.4602Z" fill="#263238"/>
<path d="M339.644 254.045H160.086L186.046 107.134H365.604L339.644 254.045Z" fill="url(#paint0_linear_2_62942)"/>
<path d="M247.502 91.916H188.739L186.046 107.133H248.934L247.502 91.916Z" fill="url(#paint1_linear_2_62942)"/>
<g opacity="0.1">
<path opacity="0.1" d="M339.644 254.045H160.086L186.046 107.134H365.604L339.644 254.045Z" fill="black"/>
<path opacity="0.1" d="M247.502 91.916H188.739L186.046 107.133H248.934L247.502 91.916Z" fill="black"/>
</g>
<path d="M182.398 98.1251C182.168 97.2725 182.115 96.4199 182.104 95.5673C182.109 94.7147 182.162 93.8621 182.398 93.0095C182.634 93.8621 182.687 94.7147 182.693 95.5673C182.681 96.4199 182.628 97.2725 182.398 98.1251Z" fill="#263238"/>
<path d="M177.177 99.6303C176.546 99.007 176.075 98.2955 175.639 97.5605C175.22 96.8197 174.837 96.0553 174.613 95.1968C175.244 95.8201 175.715 96.5315 176.151 97.2665C176.564 98.0133 176.947 98.7777 177.177 99.6303Z" fill="#263238"/>
<path d="M173.405 103.541C172.551 103.317 171.785 102.935 171.036 102.518C170.3 102.082 169.587 101.612 168.962 100.983C169.816 101.206 170.583 101.589 171.331 102.006C172.068 102.441 172.781 102.917 173.405 103.541Z" fill="#263238"/>
<path d="M172.103 108.809C171.248 109.038 170.394 109.091 169.539 109.103C168.685 109.097 167.83 109.044 166.976 108.809C167.83 108.574 168.685 108.521 169.539 108.515C170.394 108.521 171.248 108.574 172.103 108.809Z" fill="#263238"/>
<path d="M173.617 114.019C172.993 114.648 172.28 115.118 171.543 115.553C170.8 115.971 170.034 116.353 169.174 116.577C169.799 115.947 170.512 115.477 171.248 115.042C171.991 114.624 172.757 114.242 173.617 114.019Z" fill="#263238"/>
<path d="M177.53 117.776C177.306 118.629 176.923 119.393 176.505 120.14C176.069 120.875 175.597 121.586 174.967 122.21C175.191 121.357 175.574 120.593 175.992 119.846C176.434 119.111 176.906 118.399 177.53 117.776Z" fill="#263238"/>
<path d="M182.811 119.075C183.041 119.928 183.094 120.781 183.106 121.633C183.1 122.486 183.047 123.338 182.811 124.191C182.576 123.338 182.522 122.486 182.517 121.633C182.528 120.781 182.576 119.928 182.811 119.075Z" fill="#263238"/>
<path d="M188.032 117.57C188.663 118.194 189.134 118.905 189.57 119.64C189.989 120.381 190.372 121.145 190.596 122.004C189.965 121.381 189.494 120.669 189.058 119.934C188.639 119.187 188.256 118.423 188.032 117.57Z" fill="#263238"/>
<path d="M191.799 113.66C192.653 113.884 193.419 114.266 194.168 114.683C194.905 115.118 195.618 115.589 196.242 116.218C195.388 115.995 194.622 115.612 193.873 115.195C193.137 114.76 192.424 114.289 191.799 113.66Z" fill="#263238"/>
<path d="M193.101 108.392C193.955 108.162 194.81 108.109 195.664 108.098C196.519 108.104 197.373 108.156 198.228 108.392C197.373 108.627 196.519 108.68 195.664 108.686C194.81 108.68 193.955 108.627 193.101 108.392Z" fill="#263238"/>
<path d="M191.592 103.182C192.216 102.553 192.93 102.083 193.666 101.647C194.409 101.23 195.175 100.848 196.035 100.624C195.411 101.253 194.698 101.724 193.961 102.159C193.212 102.576 192.446 102.959 191.592 103.182Z" fill="#263238"/>
<path d="M187.674 99.4245C187.898 98.5719 188.281 97.8075 188.699 97.0607C189.135 96.3257 189.607 95.6142 190.237 94.991C190.013 95.8436 189.63 96.608 189.212 97.3547C188.776 98.0897 188.304 98.8012 187.674 99.4245Z" fill="#263238"/>
<path d="M339.379 254.045H159.432L133.885 112.467H313.832L339.379 254.045Z" fill="#4C6F98"/>
<path d="M196.242 199.014C200.373 199.014 203.721 195.674 203.721 191.553C203.721 187.432 200.373 184.091 196.242 184.091C192.112 184.091 188.764 187.432 188.764 191.553C188.764 195.674 192.112 199.014 196.242 199.014Z" fill="#263238"/>
<path d="M255.364 199.014C259.495 199.014 262.843 195.674 262.843 191.553C262.843 187.432 259.495 184.091 255.364 184.091C251.234 184.091 247.886 187.432 247.886 191.553C247.886 195.674 251.234 199.014 255.364 199.014Z" fill="#263238"/>
<path d="M236.547 200.208L236.134 199.426C236.099 199.355 232.233 192.229 224.46 192.229C217.37 192.229 215.643 198.938 215.573 199.226L215.36 200.079L213.646 199.667L213.852 198.809C213.869 198.726 215.956 190.465 224.46 190.465C233.323 190.465 237.525 198.273 237.702 198.609L238.115 199.391L236.547 200.208Z" fill="#263238"/>
<path d="M327.439 190.694C327.823 190.612 328.206 190.524 328.589 190.424" stroke="#263238" stroke-miterlimit="10"/>
<path d="M330.846 189.759C339.863 186.719 347.412 179.646 348.119 171.378C349.687 153.15 327.434 143.084 329.732 122.016C331.924 101.924 353.046 100.489 361.515 103.264C370.868 106.334 367.662 115.301 359.193 114.142C344.513 112.137 335.284 96.2143 342.255 78.151C347.465 64.6564 360.448 59.5643 365.723 58.012" stroke="#263238" stroke-miterlimit="10" stroke-dasharray="4 4"/>
<path d="M366.872 57.7062C367.603 57.5181 368.015 57.4417 368.015 57.4417" stroke="#263238" stroke-miterlimit="10"/>
<path d="M377.363 54.19C375.86 49.5448 365.794 51.2147 367.757 57.2828C369.725 63.3569 378.866 58.841 377.363 54.19Z" fill="#263238"/>
<path d="M362.281 52.3202C362.357 50.2798 365.198 48.7157 369.217 49.439C373.237 50.1622 377.02 52.8611 377.02 52.8611C377.02 52.8611 373.048 55.2837 368.988 55.7129C364.927 56.1363 362.204 54.3664 362.281 52.3202Z" fill="#EBEBEB"/>
<path d="M377.014 52.861C374.928 52.8728 372.848 52.8081 370.762 52.7434C368.681 52.6552 366.595 52.5729 364.521 52.4024C366.607 52.3848 368.687 52.4553 370.773 52.52C372.854 52.6082 374.94 52.6905 377.014 52.861Z" fill="#263238"/>
<path d="M366.317 50.5149C366.919 50.7854 367.478 51.1264 368.038 51.4616C368.586 51.8202 369.14 52.173 369.647 52.5964C369.046 52.3259 368.486 51.9849 367.926 51.6497C367.378 51.291 366.824 50.9383 366.317 50.5149Z" fill="#263238"/>
<path d="M371.782 52.667C371.251 53.1139 370.68 53.4902 370.108 53.8724C369.525 54.2311 368.941 54.5956 368.316 54.8896C368.847 54.4428 369.418 54.0664 369.99 53.6842C370.574 53.3256 371.157 52.961 371.782 52.667Z" fill="#263238"/>
<path d="M372.389 51.5205C372.701 51.6557 372.96 51.8557 373.22 52.0497C373.467 52.2614 373.715 52.4731 373.915 52.7494C373.603 52.6142 373.343 52.4143 373.084 52.2202C372.837 52.0027 372.583 51.7969 372.389 51.5205Z" fill="#263238"/>
<path d="M366.111 64.4152C367.367 66.0263 370.59 65.6383 373.425 62.71C376.26 59.7818 377.745 55.3835 377.745 55.3835C377.745 55.3835 373.101 55.7363 369.559 57.7591C366.017 59.7759 364.85 62.7982 366.111 64.4152Z" fill="#EBEBEB"/>
<path d="M377.744 55.3777C376.041 56.5831 374.397 57.8532 372.741 59.1232C371.103 60.411 369.464 61.6928 367.873 63.0393C369.576 61.8339 371.22 60.5638 372.877 59.2938C374.515 58.0119 376.159 56.7301 377.744 55.3777Z" fill="#263238"/>
<path d="M370.442 63.5215C370.772 62.9512 371.026 62.3455 371.285 61.7458C371.521 61.1343 371.763 60.5286 371.922 59.8877C371.592 60.4581 371.338 61.0637 371.079 61.6635C370.843 62.275 370.607 62.8865 370.442 63.5215Z" fill="#263238"/>
<path d="M373.608 58.588C372.918 58.5351 372.229 58.5645 371.545 58.588C370.861 58.635 370.172 58.6762 369.494 58.8056C370.184 58.8585 370.873 58.8291 371.557 58.8056C372.246 58.7585 372.93 58.7174 373.608 58.588Z" fill="#263238"/>
<path d="M374.773 59.1702C374.95 58.8821 375.039 58.5704 375.139 58.2588C375.215 57.9413 375.292 57.6237 375.292 57.2886C375.115 57.5767 375.027 57.8883 374.927 58.2C374.85 58.5116 374.773 58.8291 374.773 59.1702Z" fill="#263238"/>
<path d="M377.363 54.1899C376.437 54.4898 375.441 53.9782 375.141 53.055C374.84 52.1319 375.353 51.1382 376.278 50.8383C377.203 50.5384 378.199 51.05 378.5 51.9731C378.801 52.9022 378.288 53.8959 377.363 54.1899Z" fill="#455A64"/>
<path d="M378.445 57.5475C377.52 57.8474 376.524 57.3359 376.224 56.4127C375.923 55.4895 376.436 54.4958 377.361 54.1959C378.286 53.8961 379.282 54.4076 379.583 55.3308C379.883 56.2539 379.371 57.2477 378.445 57.5475Z" fill="#455A64"/>
<path d="M185.234 56.0481C184.391 64.0978 177.16 69.9425 169.098 69.1017C165.839 68.7606 162.939 67.3788 160.694 65.3208L153.345 66.3969L157.022 60.0582C156.132 57.8944 155.755 55.4836 156.014 53.0022C156.857 44.9525 164.088 39.1078 172.15 39.9486C180.218 40.7895 186.082 47.9983 185.234 56.0481Z" fill="white"/>
<path d="M185.233 56.048C184.927 58.7234 183.949 61.3459 182.269 63.4745C181.886 64.0331 181.385 64.4976 180.937 65.0033C180.425 65.4443 179.953 65.9323 179.387 66.3145C178.315 67.1377 177.107 67.7845 175.845 68.2843C174.59 68.8135 173.241 69.0605 171.891 69.2251C171.213 69.2604 170.53 69.3251 169.852 69.2663C169.168 69.2486 168.491 69.1781 167.819 69.0546C165.131 68.5666 162.585 67.3141 160.552 65.4737L160.723 65.5266L153.38 66.6497L152.85 66.732L153.121 66.2616L156.775 59.9112L156.757 60.164C154.977 55.9834 155.378 50.9971 157.664 47.1046C158.802 45.1524 160.393 43.4707 162.267 42.2183C164.141 40.96 166.31 40.172 168.538 39.8722C170.765 39.5782 173.052 39.7781 175.179 40.4837C177.301 41.1952 179.252 42.3947 180.843 43.947C184.084 47.0222 185.711 51.638 185.233 56.048ZM185.233 56.048C185.681 51.6322 184.019 47.0458 180.772 44.0117C179.163 42.4946 177.213 41.3422 175.109 40.6777C172.999 40.0192 170.748 39.8604 168.573 40.1897C166.404 40.5248 164.3 41.3304 162.509 42.5828C160.717 43.8412 159.209 45.4817 158.112 47.3633C156.999 49.2449 156.421 51.4028 156.25 53.5667C156.115 55.7364 156.468 57.9355 157.281 59.9524L157.334 60.0817L157.264 60.1993L153.563 66.5262L153.298 66.1381L160.652 65.1091L160.753 65.0974L160.823 65.1679C162.768 66.9907 165.226 68.2608 167.854 68.7841C168.508 68.9135 169.174 69.0017 169.846 69.0252C170.518 69.0958 171.184 69.0487 171.856 69.0193C173.188 68.8841 174.525 68.6606 175.781 68.155C177.036 67.6846 178.256 67.0672 179.322 66.2498C179.888 65.8794 180.36 65.3972 180.872 64.9562C181.326 64.4564 181.821 63.9978 182.21 63.4451C183.913 61.3342 184.909 58.7234 185.233 56.048Z" fill="#263238"/>
<path d="M163.445 61.3576C163.445 60.4814 164.052 59.8523 164.883 59.8523C165.761 59.8523 166.321 60.4814 166.321 61.3576C166.321 62.2102 165.761 62.8628 164.883 62.8628C164.029 62.8628 163.445 62.2102 163.445 61.3576ZM164.052 57.8825L163.711 46.2166H166.05L165.708 57.8825H164.052Z" fill="#4C6F98"/>
<path d="M169.05 61.3576C169.05 60.4814 169.657 59.8523 170.488 59.8523C171.366 59.8523 171.926 60.4814 171.926 61.3576C171.926 62.2102 171.366 62.8628 170.488 62.8628C169.633 62.8628 169.05 62.2102 169.05 61.3576ZM169.657 57.8825L169.315 46.2166H171.655L171.313 57.8825H169.657Z" fill="#4C6F98"/>
<path d="M174.648 61.3576C174.648 60.4814 175.255 59.8523 176.086 59.8523C176.965 59.8523 177.524 60.4814 177.524 61.3576C177.524 62.2102 176.965 62.8628 176.086 62.8628C175.232 62.8628 174.648 62.2102 174.648 61.3576ZM175.261 57.8825L174.92 46.2166H177.259L176.917 57.8825H175.261Z" fill="#4C6F98"/>
<defs>
<linearGradient id="paint0_linear_2_62942" x1="160.086" y1="141.858" x2="366.356" y2="143.258" gradientUnits="userSpaceOnUse">
<stop stop-color="#446286"/>
<stop offset="1" stop-color="#3C435B"/>
</linearGradient>
<linearGradient id="paint1_linear_2_62942" x1="186.046" y1="95.5129" x2="249.141" y2="96.7779" gradientUnits="userSpaceOnUse">
<stop stop-color="#446286"/>
<stop offset="1" stop-color="#3C435B"/>
</linearGradient>
</defs>
</svg>
