<svg width="120" height="40" viewBox="0 0 120 40" fill="none" xmlns="http://www.w3.org/2000/svg">
<g clip-path="url(#clip0_912_25970)">
<path d="M110.135 -0.000114141H9.53468C9.16798 -0.000114141 8.80568 -0.000114141 8.43995 0.00188586C8.1338 0.00388586 7.83009 0.00969586 7.521 0.0145859C6.84951 0.0224877 6.17961 0.0815621 5.5171 0.191296C4.85552 0.303418 4.21467 0.514802 3.61622 0.818296C3.0185 1.12436 2.47235 1.52205 1.99757 1.99696C1.5203 2.47052 1.12246 3.0179 0.81935 3.61805C0.5154 4.21699 0.304641 4.85882 0.19435 5.52137C0.0830109 6.18307 0.0230984 6.85241 0.01515 7.52337C0.00587 7.82997 0.00489 8.13759 0 8.44423V31.5585C0.00489 31.869 0.00587 32.1698 0.01515 32.4804C0.0231008 33.1513 0.0830134 33.8206 0.19435 34.4823C0.304336 35.1452 0.515108 35.7874 0.81935 36.3866C1.12233 36.9848 1.52022 37.53 1.99757 38.0009C2.47055 38.4779 3.01705 38.8759 3.61622 39.1796C4.21467 39.4839 4.85545 39.6965 5.5171 39.8104C6.17972 39.9192 6.84956 39.9783 7.521 39.9872C7.83009 39.994 8.1338 39.9979 8.43995 39.9979C8.80567 39.9999 9.168 39.9999 9.53468 39.9999H110.135C110.494 39.9999 110.859 39.9999 111.219 39.9979C111.523 39.9979 111.836 39.994 112.141 39.9872C112.811 39.9788 113.479 39.9197 114.141 39.8104C114.804 39.6957 115.448 39.4831 116.049 39.1796C116.648 38.8757 117.194 38.4777 117.666 38.0009C118.142 37.5281 118.541 36.9833 118.848 36.3866C119.15 35.787 119.358 35.1448 119.467 34.4823C119.578 33.8205 119.64 33.1514 119.652 32.4804C119.656 32.1698 119.656 31.869 119.656 31.5585C119.664 31.1952 119.664 30.8339 119.664 30.4647V9.53602C119.664 9.16981 119.664 8.80653 119.656 8.44423C119.656 8.13759 119.656 7.82997 119.652 7.52333C119.64 6.85231 119.578 6.18312 119.467 5.52133C119.358 4.85917 119.149 4.21739 118.848 3.61801C118.23 2.41508 117.252 1.43591 116.049 0.818206C115.448 0.515453 114.804 0.304126 114.141 0.191206C113.48 0.0809886 112.811 0.0218936 112.141 0.0144459C111.836 0.00956586 111.523 0.00370586 111.219 0.00175586C110.859 -0.000244141 110.494 -0.000244141 110.135 -0.000244141V-0.000114141Z" fill="#A6A6A6"/>
<path d="M8.44475 39.125C8.14007 39.125 7.84275 39.1211 7.54046 39.1143C6.91424 39.1061 6.28948 39.0516 5.67132 38.9512C5.09491 38.8519 4.53652 38.6673 4.01458 38.4033C3.49742 38.1415 3.02573 37.7983 2.61758 37.3867C2.20352 36.98 1.85879 36.5082 1.59706 35.9902C1.33245 35.4688 1.14933 34.9099 1.05406 34.333C0.951189 33.7131 0.895529 33.0863 0.887565 32.458C0.881225 32.2471 0.872925 31.5449 0.872925 31.5449V8.44434C0.872925 8.44434 0.881765 7.75293 0.887615 7.5498C0.895241 6.92248 0.950577 6.29665 1.05314 5.67773C1.14858 5.09925 1.33185 4.53875 1.5966 4.01563C1.85737 3.49794 2.20018 3.02586 2.61175 2.61768C3.02285 2.20562 3.49605 1.8606 4.01409 1.59521C4.53483 1.33209 5.09216 1.14873 5.66741 1.05127C6.2876 0.949836 6.91453 0.894996 7.54292 0.88721L8.44524 0.875H111.214L112.127 0.8877C112.75 0.895099 113.371 0.94945 113.985 1.05029C114.566 1.14898 115.13 1.33362 115.656 1.59814C116.694 2.13299 117.538 2.97916 118.071 4.01807C118.332 4.53758 118.512 5.09351 118.606 5.66699C118.71 6.29099 118.768 6.92174 118.78 7.5542C118.783 7.8374 118.783 8.1416 118.783 8.44434C118.791 8.81934 118.791 9.17627 118.791 9.53613V30.4648C118.791 30.8281 118.791 31.1826 118.783 31.54C118.783 31.8652 118.783 32.1631 118.779 32.4697C118.768 33.0909 118.71 33.7104 118.608 34.3232C118.515 34.9043 118.333 35.4675 118.068 35.9932C117.805 36.5056 117.462 36.9733 117.053 37.3789C116.644 37.7927 116.172 38.1379 115.653 38.4014C115.128 38.6674 114.566 38.8527 113.985 38.9512C113.367 39.0522 112.742 39.1067 112.116 39.1143C111.823 39.1211 111.517 39.125 111.219 39.125L110.135 39.127L8.44475 39.125Z" fill="black"/>
<path d="M24.7687 20.2998C24.7795 19.4652 25.0012 18.6468 25.4132 17.9208C25.8253 17.1949 26.4142 16.585 27.1253 16.1478C26.6736 15.5026 26.0776 14.9717 25.3848 14.5971C24.692 14.2226 23.9214 14.0147 23.1341 13.9901C21.4549 13.8138 19.827 14.9949 18.9712 14.9949C18.099 14.9949 16.7815 14.0076 15.3627 14.0368C14.4451 14.0664 13.5507 14.3333 12.7668 14.8114C11.983 15.2894 11.3363 15.9624 10.8898 16.7647C8.95583 20.1131 10.3984 25.0341 12.251 27.7407C13.1779 29.0661 14.2612 30.5465 15.6787 30.494C17.0657 30.4365 17.5838 29.6096 19.2581 29.6096C20.9168 29.6096 21.4028 30.494 22.8491 30.4607C24.3374 30.4365 25.2752 29.1294 26.1696 27.7915C26.8355 26.8472 27.348 25.8034 27.688 24.699C26.8233 24.3333 26.0854 23.7211 25.5662 22.9388C25.0471 22.1565 24.7698 21.2387 24.7687 20.2998Z" fill="white"/>
<path d="M22.0371 12.2108C22.8486 11.2366 23.2484 9.98445 23.1516 8.72021C21.9118 8.85044 20.7665 9.44299 19.944 10.3798C19.5419 10.8375 19.2339 11.3699 19.0376 11.9467C18.8414 12.5235 18.7607 13.1333 18.8003 13.7412C19.4205 13.7476 20.034 13.6132 20.5946 13.3481C21.1553 13.083 21.6485 12.6942 22.0371 12.2108Z" fill="white"/>
<path d="M42.302 27.1397H37.5686L36.4319 30.4961H34.427L38.9104 18.0781H40.9934L45.4768 30.4961H43.4377L42.302 27.1397ZM38.0588 25.5908H41.8108L39.9612 20.1436H39.9095L38.0588 25.5908Z" fill="white"/>
<path d="M55.1595 25.9697C55.1595 28.7832 53.6536 30.5908 51.3811 30.5908C50.8055 30.6209 50.233 30.4883 49.7292 30.2082C49.2254 29.928 48.8107 29.5117 48.5325 29.0068H48.4895V33.4912H46.6311V21.4423H48.43V22.9482H48.4641C48.7551 22.4457 49.1768 22.0316 49.6845 21.7497C50.1921 21.4679 50.7666 21.3289 51.347 21.3476C53.6448 21.3476 55.1595 23.164 55.1595 25.9697ZM53.2493 25.9697C53.2493 24.1367 52.302 22.9316 50.8567 22.9316C49.4368 22.9316 48.4817 24.1621 48.4817 25.9697C48.4817 27.7939 49.4368 29.0156 50.8567 29.0156C52.302 29.0156 53.2493 27.8193 53.2493 25.9697Z" fill="white"/>
<path d="M65.1243 25.9697C65.1243 28.7832 63.6184 30.5908 61.346 30.5908C60.7703 30.6209 60.1978 30.4883 59.694 30.2081C59.1902 29.928 58.7755 29.5117 58.4973 29.0068H58.4543V33.4912H56.5959V21.4423H58.3948V22.9482H58.4289C58.7199 22.4457 59.1416 22.0315 59.6493 21.7497C60.1569 21.4679 60.7314 21.3289 61.3118 21.3476C63.6096 21.3476 65.1243 23.164 65.1243 25.9697ZM63.2141 25.9697C63.2141 24.1367 62.2669 22.9316 60.8216 22.9316C59.4016 22.9316 58.4466 24.1621 58.4466 25.9697C58.4466 27.7939 59.4016 29.0156 60.8216 29.0156C62.2669 29.0156 63.2141 27.8193 63.2141 25.9697H63.2141Z" fill="white"/>
<path d="M71.7102 27.0362C71.8479 28.2676 73.0442 29.0762 74.679 29.0762C76.2454 29.0762 77.3723 28.2676 77.3723 27.1572C77.3723 26.1934 76.6927 25.6162 75.0833 25.2207L73.4739 24.833C71.1936 24.2822 70.135 23.2158 70.135 21.4854C70.135 19.3428 72.0022 17.8711 74.6536 17.8711C77.2776 17.8711 79.0764 19.3428 79.137 21.4854H77.261C77.1487 20.2461 76.1243 19.4981 74.6272 19.4981C73.1301 19.4981 72.1057 20.2549 72.1057 21.3565C72.1057 22.2344 72.76 22.751 74.3606 23.1465L75.7288 23.4824C78.2766 24.0849 79.3352 25.1084 79.3352 26.9248C79.3352 29.248 77.4846 30.7031 74.5413 30.7031C71.7873 30.7031 69.928 29.2822 69.8079 27.0361L71.7102 27.0362Z" fill="white"/>
<path d="M83.346 19.3005V21.4431H85.0676V22.9148H83.346V27.906C83.346 28.6814 83.6907 29.0427 84.4475 29.0427C84.6519 29.0392 84.856 29.0248 85.0589 28.9997V30.4626C84.7186 30.5262 84.3727 30.555 84.0266 30.5486C82.1936 30.5486 81.4788 29.8601 81.4788 28.1042V22.9148H80.1624V21.4431H81.4787V19.3005H83.346Z" fill="white"/>
<path d="M86.0647 25.9705C86.0647 23.1218 87.7424 21.3318 90.3586 21.3318C92.9836 21.3318 94.6536 23.1218 94.6536 25.9705C94.6536 28.8269 92.9924 30.6091 90.3586 30.6091C87.7258 30.6091 86.0647 28.8269 86.0647 25.9705ZM92.76 25.9705C92.76 24.0164 91.8645 22.863 90.3586 22.863C88.8528 22.863 87.9582 24.0251 87.9582 25.9705C87.9582 27.9324 88.8528 29.0769 90.3586 29.0769C91.8645 29.0769 92.76 27.9324 92.76 25.9705H92.76Z" fill="white"/>
<path d="M96.1858 21.4425H97.9583V22.9835H98.0013C98.1212 22.5022 98.4031 22.0769 98.7997 21.779C99.1963 21.4811 99.6834 21.3288 100.179 21.3478C100.393 21.347 100.607 21.3703 100.816 21.4171V23.1554C100.545 23.0728 100.263 23.0348 99.9807 23.0431C99.7107 23.0321 99.4416 23.0797 99.1917 23.1826C98.9419 23.2855 98.7173 23.4412 98.5333 23.6391C98.3493 23.837 98.2104 24.0724 98.1259 24.3291C98.0415 24.5857 98.0136 24.8576 98.0442 25.1261V30.4962H96.1858L96.1858 21.4425Z" fill="white"/>
<path d="M109.384 27.8376C109.134 29.4812 107.533 30.6091 105.486 30.6091C102.852 30.6091 101.217 28.8445 101.217 26.0134C101.217 23.1736 102.861 21.3318 105.407 21.3318C107.912 21.3318 109.488 23.0525 109.488 25.7976V26.4343H103.093V26.5466C103.064 26.8798 103.105 27.2155 103.215 27.5313C103.326 27.8472 103.502 28.136 103.732 28.3785C103.962 28.6211 104.242 28.8118 104.551 28.9381C104.861 29.0644 105.194 29.1234 105.529 29.1111C105.968 29.1522 106.408 29.0505 106.785 28.8211C107.162 28.5916 107.454 28.2467 107.619 27.8376L109.384 27.8376ZM103.102 25.1355H107.628C107.645 24.8359 107.599 24.5361 107.495 24.2549C107.39 23.9737 107.228 23.7171 107.02 23.5014C106.811 23.2856 106.561 23.1153 106.283 23.001C106.006 22.8868 105.707 22.8312 105.407 22.8376C105.105 22.8358 104.805 22.894 104.525 23.0087C104.245 23.1235 103.99 23.2925 103.776 23.5062C103.562 23.7198 103.392 23.9738 103.276 24.2534C103.16 24.5331 103.101 24.8329 103.102 25.1355V25.1355Z" fill="white"/>
<path d="M37.8262 8.73065C38.2158 8.70269 38.6067 8.76155 38.9709 8.90298C39.335 9.04441 39.6632 9.26489 39.9317 9.54852C40.2003 9.83214 40.4026 10.1718 40.524 10.5431C40.6454 10.9144 40.6829 11.308 40.6338 11.6955C40.6338 13.6017 39.6035 14.6975 37.8262 14.6975H35.6709V8.73065H37.8262ZM36.5976 13.8536H37.7226C38.0011 13.8703 38.2797 13.8246 38.5382 13.72C38.7967 13.6154 39.0287 13.4545 39.2172 13.2489C39.4057 13.0433 39.546 12.7983 39.6278 12.5317C39.7097 12.2651 39.7311 11.9836 39.6904 11.7076C39.7281 11.4328 39.7046 11.153 39.6215 10.8884C39.5383 10.6237 39.3977 10.3807 39.2097 10.1768C39.0216 9.97285 38.7907 9.81304 38.5337 9.70881C38.2766 9.60457 37.9996 9.55849 37.7226 9.57386H36.5976V13.8536Z" fill="white"/>
<path d="M41.6807 12.4448C41.6524 12.1489 41.6862 11.8503 41.7801 11.5682C41.8739 11.2862 42.0257 11.0268 42.2256 10.8068C42.4256 10.5868 42.6693 10.4111 42.9411 10.2908C43.213 10.1705 43.507 10.1084 43.8042 10.1084C44.1015 10.1084 44.3955 10.1705 44.6673 10.2908C44.9392 10.4111 45.1829 10.5868 45.3828 10.8068C45.5828 11.0268 45.7345 11.2862 45.8284 11.5682C45.9222 11.8503 45.9561 12.1489 45.9278 12.4448C45.9566 12.741 45.9232 13.04 45.8296 13.3225C45.736 13.605 45.5843 13.8649 45.3843 14.0853C45.1843 14.3057 44.9404 14.4818 44.6683 14.6023C44.3962 14.7229 44.1019 14.7852 43.8042 14.7852C43.5066 14.7852 43.2123 14.7229 42.9402 14.6023C42.668 14.4818 42.4241 14.3057 42.2241 14.0853C42.0242 13.8649 41.8725 13.605 41.7789 13.3225C41.6853 13.04 41.6519 12.741 41.6807 12.4448ZM45.0137 12.4448C45.0137 11.4687 44.5752 10.8979 43.8057 10.8979C43.0332 10.8979 42.5987 11.4687 42.5987 12.4448C42.5987 13.4287 43.0333 13.9951 43.8057 13.9951C44.5752 13.9951 45.0137 13.4248 45.0137 12.4448H45.0137Z" fill="white"/>
<path d="M51.5732 14.6975H50.6514L49.7207 11.3811H49.6504L48.7236 14.6975H47.8105L46.5693 10.1946H47.4707L48.2773 13.6306H48.3438L49.2695 10.1946H50.1221L51.0479 13.6306H51.1182L51.9209 10.1946H52.8096L51.5732 14.6975Z" fill="white"/>
<path d="M53.8535 10.1946H54.709V10.91H54.7754C54.888 10.653 55.0781 10.4377 55.3189 10.2939C55.5598 10.15 55.8395 10.085 56.1191 10.1077C56.3382 10.0912 56.5582 10.1243 56.7628 10.2044C56.9674 10.2845 57.1514 10.4096 57.3011 10.5704C57.4508 10.7313 57.5623 10.9237 57.6275 11.1335C57.6927 11.3434 57.7099 11.5652 57.6777 11.7825V14.6975H56.7891V12.0057C56.7891 11.282 56.4746 10.9222 55.8174 10.9222C55.6686 10.9152 55.5201 10.9406 55.3821 10.9964C55.244 11.0522 55.1197 11.1372 55.0175 11.2456C54.9154 11.354 54.8379 11.4832 54.7904 11.6243C54.7429 11.7655 54.7264 11.9152 54.7422 12.0633V14.6976H53.8535L53.8535 10.1946Z" fill="white"/>
<path d="M59.0938 8.43677H59.9824V14.6975H59.0938V8.43677Z" fill="white"/>
<path d="M61.2177 12.4434C61.1894 12.1475 61.2232 11.8489 61.3171 11.5668C61.411 11.2847 61.5628 11.0254 61.7627 10.8054C61.9627 10.5854 62.2064 10.4096 62.4783 10.2893C62.7502 10.1691 63.0442 10.1069 63.3414 10.1069C63.6387 10.1069 63.9327 10.1691 64.2046 10.2893C64.4765 10.4096 64.7202 10.5854 64.9202 10.8054C65.1201 11.0254 65.2719 11.2847 65.3658 11.5668C65.4596 11.8489 65.4935 12.1475 65.4652 12.4434C65.494 12.7396 65.4606 13.0386 65.3669 13.3211C65.2733 13.6037 65.1216 13.8635 64.9216 14.0839C64.7216 14.3043 64.4777 14.4804 64.2055 14.6009C63.9334 14.7215 63.6391 14.7837 63.3414 14.7837C63.0438 14.7837 62.7495 14.7215 62.4773 14.6009C62.2052 14.4804 61.9613 14.3043 61.7613 14.0839C61.5613 13.8635 61.4096 13.6037 61.316 13.3211C61.2223 13.0386 61.1889 12.7396 61.2177 12.4434ZM64.5507 12.4434C64.5507 11.4673 64.1122 10.8965 63.3427 10.8965C62.5702 10.8965 62.1357 11.4673 62.1357 12.4434C62.1357 13.4273 62.5702 13.9937 63.3427 13.9937C64.1122 13.9937 64.5507 13.4234 64.5507 12.4434H64.5507Z" fill="white"/>
<path d="M66.4009 13.4248C66.4009 12.6143 67.0044 12.147 68.0757 12.0806L69.2954 12.0103V11.6216C69.2954 11.146 68.981 10.8774 68.3735 10.8774C67.8774 10.8774 67.5337 11.0596 67.4351 11.3779H66.5747C66.6655 10.6045 67.3931 10.1084 68.4146 10.1084C69.5435 10.1084 70.1802 10.6704 70.1802 11.6216V14.6982H69.3247V14.0654H69.2544C69.1117 14.2924 68.9113 14.4775 68.6737 14.6017C68.436 14.7259 68.1697 14.7848 67.9019 14.7724C67.7128 14.7921 67.5218 14.7719 67.341 14.7132C67.1602 14.6545 66.9938 14.5586 66.8524 14.4316C66.711 14.3047 66.5977 14.1495 66.52 13.9761C66.4422 13.8026 66.4016 13.6149 66.4009 13.4248ZM69.2954 13.04V12.6636L68.1958 12.7339C67.5757 12.7754 67.2944 12.9863 67.2944 13.3833C67.2944 13.7886 67.646 14.0244 68.1294 14.0244C68.2711 14.0387 68.4142 14.0244 68.5502 13.9824C68.6862 13.9403 68.8123 13.8712 68.9211 13.7794C69.0299 13.6876 69.1191 13.5748 69.1834 13.4478C69.2477 13.3207 69.2858 13.1821 69.2954 13.04Z" fill="white"/>
<path d="M71.3481 12.4441C71.3481 11.0213 72.0796 10.1199 73.2173 10.1199C73.4987 10.1069 73.778 10.1743 74.0225 10.3142C74.2671 10.4541 74.4667 10.6607 74.5982 10.9099H74.6646V8.43677H75.5532V14.6975H74.7017V13.9861H74.6314C74.4898 14.2336 74.2831 14.4376 74.0339 14.5761C73.7846 14.7146 73.5022 14.7822 73.2173 14.7717C72.0718 14.7718 71.3481 13.8704 71.3481 12.4441ZM72.2661 12.4441C72.2661 13.3992 72.7164 13.9739 73.4693 13.9739C74.2183 13.9739 74.6812 13.3909 74.6812 12.448C74.6812 11.5095 74.2134 10.9182 73.4693 10.9182C72.7212 10.9182 72.2661 11.4968 72.2661 12.4441H72.2661Z" fill="white"/>
<path d="M79.23 12.4448C79.2017 12.1489 79.2356 11.8503 79.3294 11.5682C79.4232 11.2862 79.575 11.0268 79.7749 10.8068C79.9749 10.5868 80.2186 10.4111 80.4904 10.2908C80.7623 10.1705 81.0563 10.1084 81.3536 10.1084C81.6508 10.1084 81.9448 10.1705 82.2167 10.2908C82.4885 10.4111 82.7322 10.5868 82.9322 10.8068C83.1321 11.0268 83.2839 11.2862 83.3777 11.5682C83.4715 11.8503 83.5054 12.1489 83.4771 12.4448C83.5059 12.741 83.4725 13.04 83.3789 13.3225C83.2853 13.605 83.1336 13.8649 82.9336 14.0853C82.7336 14.3057 82.4898 14.4818 82.2176 14.6023C81.9455 14.7229 81.6512 14.7852 81.3536 14.7852C81.0559 14.7852 80.7616 14.7229 80.4895 14.6023C80.2173 14.4818 79.9735 14.3057 79.7735 14.0853C79.5735 13.8649 79.4218 13.605 79.3282 13.3225C79.2346 13.04 79.2012 12.741 79.23 12.4448ZM82.563 12.4448C82.563 11.4687 82.1245 10.8979 81.355 10.8979C80.5826 10.8979 80.148 11.4687 80.148 12.4448C80.148 13.4287 80.5826 13.9951 81.355 13.9951C82.1246 13.9951 82.563 13.4248 82.563 12.4448Z" fill="white"/>
<path d="M84.6694 10.1946H85.5249V10.91H85.5913C85.704 10.653 85.894 10.4377 86.1348 10.2939C86.3757 10.15 86.6554 10.085 86.935 10.1077C87.1541 10.0912 87.3741 10.1243 87.5787 10.2044C87.7833 10.2845 87.9673 10.4096 88.117 10.5704C88.2666 10.7313 88.3782 10.9237 88.4434 11.1335C88.5086 11.3434 88.5258 11.5652 88.4936 11.7825V14.6975H87.605V12.0057C87.605 11.282 87.2905 10.9222 86.6333 10.9222C86.4845 10.9152 86.336 10.9406 86.198 10.9964C86.0599 11.0522 85.9356 11.1372 85.8334 11.2456C85.7313 11.354 85.6538 11.4832 85.6063 11.6243C85.5588 11.7655 85.5423 11.9152 85.5581 12.0633V14.6976H84.6694V10.1946Z" fill="white"/>
<path d="M93.5151 9.07349V10.2151H94.4907V10.9636H93.5151V13.2791C93.5151 13.7507 93.7095 13.9573 94.1519 13.9573C94.2651 13.9569 94.3783 13.9501 94.4907 13.9368V14.677C94.3311 14.7055 94.1694 14.7207 94.0073 14.7224C93.019 14.7224 92.6255 14.3747 92.6255 13.5066V10.9636H91.9106V10.215H92.6255V9.07349H93.5151Z" fill="white"/>
<path d="M95.7046 8.43677H96.5854V10.9182H96.6557C96.7739 10.6589 96.9691 10.4423 97.2148 10.298C97.4605 10.1536 97.7447 10.0885 98.0287 10.1116C98.2467 10.0997 98.4646 10.1361 98.6668 10.2181C98.8691 10.3002 99.0508 10.4259 99.1989 10.5862C99.347 10.7465 99.458 10.9376 99.5237 11.1457C99.5895 11.3539 99.6086 11.5739 99.5795 11.7903V14.6975H98.6899V12.0095C98.6899 11.2903 98.3549 10.926 97.7271 10.926C97.5743 10.9135 97.4207 10.9345 97.2769 10.9875C97.1331 11.0406 97.0027 11.1244 96.8947 11.2332C96.7867 11.3419 96.7038 11.4729 96.6517 11.6171C96.5997 11.7612 96.5797 11.915 96.5933 12.0676V14.6975H95.7046L95.7046 8.43677Z" fill="white"/>
<path d="M104.761 13.481C104.641 13.8926 104.379 14.2486 104.022 14.4867C103.666 14.7249 103.236 14.83 102.81 14.7838C102.513 14.7916 102.219 14.7348 101.946 14.6172C101.674 14.4997 101.43 14.3243 101.232 14.1032C101.034 13.882 100.887 13.6205 100.8 13.3366C100.713 13.0528 100.689 12.7535 100.73 12.4595C100.691 12.1647 100.715 11.8647 100.801 11.5801C100.888 11.2954 101.034 11.0326 101.231 10.8095C101.428 10.5865 101.671 10.4083 101.942 10.2871C102.214 10.1659 102.509 10.1045 102.806 10.107C104.059 10.107 104.815 10.963 104.815 12.377V12.6871H101.635V12.7369C101.621 12.9021 101.642 13.0685 101.696 13.2252C101.75 13.382 101.837 13.5257 101.95 13.6471C102.062 13.7686 102.2 13.8651 102.352 13.9305C102.504 13.9959 102.669 14.0287 102.835 14.0269C103.047 14.0524 103.262 14.0141 103.453 13.9169C103.644 13.8197 103.802 13.668 103.906 13.481L104.761 13.481ZM101.635 12.0299H103.91C103.921 11.8787 103.9 11.7269 103.849 11.5842C103.798 11.4415 103.718 11.311 103.614 11.2012C103.509 11.0913 103.383 11.0045 103.243 10.9463C103.103 10.8881 102.953 10.8599 102.801 10.8634C102.648 10.8614 102.495 10.8903 102.353 10.9482C102.21 11.0062 102.081 11.092 101.972 11.2007C101.864 11.3095 101.778 11.4388 101.72 11.5812C101.662 11.7236 101.633 11.8762 101.635 12.0299H101.635Z" fill="white"/>
</g>
<defs>
<clipPath id="clip0_912_25970">
<rect width="119.664" height="40" fill="white"/>
</clipPath>
</defs>
</svg>
