<svg width="135" height="40" viewBox="0 0 135 40" fill="none" xmlns="http://www.w3.org/2000/svg">
<g clip-path="url(#clip0_912_25971)">
<path d="M129.453 39.9004H5.07461C2.33829 39.9004 0.0994873 37.6616 0.0994873 34.9253V5.07452C0.0994873 2.3382 2.33829 0.0993958 5.07461 0.0993958H129.453C132.189 0.0993958 134.428 2.3382 134.428 5.07452V34.9253C134.428 37.6616 132.189 39.9004 129.453 39.9004Z" fill="black"/>
<path d="M129.453 0.0993958H5.07461C2.33829 0.0993958 0.0994873 2.3382 0.0994873 5.07452V34.9253C0.0994873 37.6616 2.33829 39.9004 5.07461 39.9004H129.453C132.189 39.9004 134.428 37.6616 134.428 34.9253V5.07452C134.428 2.3382 132.189 0.0993958 129.453 0.0993958ZM129.453 0.895416C131.757 0.895416 133.632 2.77044 133.632 5.07452V34.9253C133.632 37.2297 131.757 39.1048 129.453 39.1048H5.07461C2.77053 39.1048 0.895507 37.2297 0.895507 34.9253V5.07452C0.895507 2.77044 2.77053 0.895416 5.07461 0.895416H129.453Z" fill="#A6A6A6"/>
<path d="M47.2821 10.2917C47.2821 11.1254 47.0352 11.7893 46.5408 12.2845C45.9792 12.8733 45.2472 13.168 44.3474 13.168C43.4857 13.168 42.7531 12.8695 42.1506 12.2717C41.547 11.6742 41.2458 10.9334 41.2458 10.0496C41.2458 9.16528 41.547 8.42488 42.1506 7.82707C42.7531 7.22966 43.4857 6.93075 44.3474 6.93075C44.775 6.93075 45.1844 7.01433 45.573 7.1811C45.9617 7.34826 46.2734 7.57016 46.5066 7.84807L45.9819 8.37314C45.5866 7.9009 45.0425 7.66498 44.3474 7.66498C43.719 7.66498 43.1756 7.88578 42.717 8.32767C42.2583 8.77006 42.029 9.34369 42.029 10.0496C42.029 10.7554 42.2583 11.3291 42.717 11.7715C43.1756 12.2133 43.719 12.4341 44.3474 12.4341C45.0141 12.4341 45.5699 12.2121 46.0149 11.7676C46.3038 11.4779 46.4708 11.0753 46.5155 10.5583H44.3474V9.8412H47.2405C47.2684 9.99712 47.2821 10.1468 47.2821 10.2917Z" fill="white"/>
<path d="M47.282 10.2919H47.1825C47.1817 11.1065 46.9437 11.7392 46.4703 12.2142L46.4692 12.215L46.4688 12.2158C45.925 12.7844 45.2261 13.0674 44.3473 13.0686C43.5086 13.0674 42.8066 12.7813 42.2205 12.2014C41.6356 11.6203 41.3463 10.911 41.3452 10.0497C41.3463 9.18798 41.6356 8.47902 42.2205 7.89832C42.8066 7.31803 43.5086 7.03156 44.3473 7.03036C44.7621 7.03036 45.157 7.11126 45.5336 7.27255C45.9106 7.43504 46.2084 7.64797 46.4303 7.91235L46.5065 7.84817L46.4362 7.77783L45.9114 8.3033L45.9818 8.37325L46.0584 8.30957C45.6447 7.81394 45.0641 7.5641 44.3473 7.56559C43.6956 7.56479 43.1223 7.79763 42.648 8.25633C42.1692 8.71653 41.9286 9.3224 41.9294 10.0497C41.9286 10.7769 42.1692 11.3828 42.648 11.843C43.1223 12.3017 43.6956 12.5345 44.3473 12.5337C45.0361 12.5349 45.6231 12.3013 46.0851 11.838C46.3938 11.5286 46.5687 11.0999 46.6146 10.567L46.6239 10.4589H44.4468V9.94081H47.2404V9.84131L47.1424 9.85882C47.1696 10.0097 47.1825 10.153 47.1825 10.2919H47.282H47.3815C47.3815 10.1406 47.3674 9.98519 47.3383 9.8235L47.3236 9.74181H44.2478V10.5584V10.6579H46.5154V10.5584L46.4163 10.5499C46.3724 11.0506 46.213 11.4276 45.9444 11.6973C45.5169 12.1233 44.9922 12.3335 44.3473 12.3347C43.7422 12.3339 43.2287 12.1256 42.786 11.7C42.3476 11.2759 42.1295 10.7345 42.1284 10.0497C42.1295 9.36479 42.3476 8.8234 42.786 8.39932C43.2287 7.97375 43.7422 7.76539 44.3473 7.76459C45.0202 7.76618 45.5282 7.98847 45.9056 8.43743L45.9756 8.52061L46.5769 7.91852L46.6414 7.85404L46.5827 7.78439C46.3382 7.49295 46.0125 7.26161 45.6121 7.08987C45.211 6.91763 44.7877 6.83136 44.3473 6.83136C43.4628 6.83056 42.6994 7.14151 42.0802 7.75683C41.4587 8.37096 41.1454 9.1429 41.1462 10.0497C41.1454 10.956 41.4587 11.7284 42.0806 12.3429C42.6994 12.9578 43.4628 13.2684 44.3473 13.2676C45.2685 13.2684 46.0327 12.9624 46.6126 12.3533L46.5407 12.2846L46.611 12.3549C47.1264 11.8399 47.3822 11.1442 47.3815 10.2919H47.282Z" fill="white"/>
<path d="M51.8684 7.7977H49.1496V9.69064H51.6015V10.4081H49.1496V12.301H51.8684V13.0344H48.3832V7.06427H51.8684V7.7977Z" fill="white"/>
<path d="M51.8682 7.79806V7.69856H49.0499V9.7905H51.5018V10.3086L49.0499 10.3089V12.4008H51.7687V12.9353H48.4825V7.16413H51.7687V7.79806H51.8682V7.69856V7.79806H51.9677V7.06463V6.96512H48.2834V13.1343H51.9677V12.3013V12.2018H49.2489V10.5079H51.7008V9.69099V9.59149H49.2489V7.89756H51.9677V7.79806H51.8682Z" fill="white"/>
<path d="M55.1033 13.0344H54.3357V7.7977H52.6682V7.06427H56.7708V7.7977H55.1033V13.0344Z" fill="white"/>
<path d="M55.1035 13.0348V12.9353H54.4353V7.69856H52.7679V7.16413H56.6714V7.69856H55.004V13.0348H55.1035V12.9353V13.0348H55.203V7.89756H56.8704V7.06463V6.96512H52.5688V7.79806V7.89756H54.2363V13.1343H55.1035H55.203V13.0348H55.1035Z" fill="white"/>
<path d="M59.7393 13.0344V7.06427H60.5061V13.0344H59.7393Z" fill="white"/>
<path d="M59.7392 13.0348H59.8387V7.16413H60.4065V12.9353H59.7392V13.0348H59.8387H59.7392V13.1343H60.506H60.6055V6.96512H59.7392H59.6396V13.1343H59.7392V13.0348Z" fill="white"/>
<path d="M63.909 13.0344H63.1414V7.7977H61.474V7.06427H65.5765V7.7977H63.909V13.0344Z" fill="white"/>
<path d="M63.9089 13.0348V12.9353H63.2408V7.69856H61.5734V7.16413H65.4769V7.69856H63.8094V13.0348H63.9089V12.9353V13.0348H64.0084V7.89756H65.6759V7.06463V6.96512H61.3744V7.79806V7.89756H63.0418V13.1343H63.9089H64.0084V13.0348H63.9089Z" fill="white"/>
<path d="M69.5316 11.7633C69.9735 12.2107 70.5141 12.4341 71.1535 12.4341C71.7929 12.4341 72.3339 12.2107 72.7751 11.7633C73.2174 11.3159 73.439 10.7441 73.439 10.0496C73.439 9.35503 73.2174 8.78319 72.7751 8.33583C72.3339 7.88846 71.7929 7.66498 71.1535 7.66498C70.5141 7.66498 69.9735 7.88846 69.5316 8.33583C69.0904 8.78319 68.8689 9.35503 68.8689 10.0496C68.8689 10.7441 69.0904 11.3159 69.5316 11.7633ZM73.3426 12.2631C72.7556 12.8667 72.0257 13.168 71.1535 13.168C70.2805 13.168 69.551 12.8667 68.9653 12.2631C68.3779 11.6602 68.0857 10.9222 68.0857 10.0496C68.0857 9.17692 68.3779 8.43881 68.9653 7.83603C69.551 7.23234 70.2805 6.93075 71.1535 6.93075C72.0211 6.93075 72.7491 7.23394 73.3387 7.83991C73.9276 8.44588 74.2222 9.1824 74.2222 10.0496C74.2222 10.9222 73.9283 11.6602 73.3426 12.2631Z" fill="white"/>
<path d="M69.5316 11.7634L69.4608 11.8333C69.9191 12.2986 70.4909 12.5349 71.1536 12.5337C71.8159 12.5349 72.3884 12.2986 72.8459 11.8333C73.3072 11.3677 73.5393 10.7652 73.5386 10.0497C73.5393 9.33414 73.3072 8.73166 72.8459 8.26599C72.3884 7.80071 71.8159 7.56439 71.1536 7.56559C70.4909 7.56439 69.9191 7.80071 69.4608 8.26599C69.0006 8.73166 68.7682 9.33414 68.7694 10.0497C68.7682 10.7652 69.0006 11.3677 69.4608 11.8333L69.5316 11.7634L69.6023 11.6934C69.1802 11.2639 68.9692 10.7236 68.9684 10.0497C68.9692 9.37574 69.1802 8.83544 69.6023 8.40589C70.0283 7.97643 70.5371 7.76579 71.1536 7.76459C71.7696 7.76579 72.2796 7.97643 72.7044 8.40589C73.1273 8.83544 73.3384 9.37574 73.3392 10.0497C73.3384 10.7236 73.1273 11.2639 72.7044 11.6934C72.2796 12.1229 71.7696 12.3335 71.1536 12.3347C70.5371 12.3335 70.0283 12.1229 69.6023 11.6934L69.5316 11.7634ZM73.3426 12.2632L73.2715 12.194C72.701 12.7786 72.0032 13.0674 71.1536 13.0686C70.3035 13.0674 69.6058 12.7786 69.0364 12.194L69.0337 12.191L69.0364 12.194C68.467 11.6075 68.186 10.9001 68.1852 10.0497C68.186 9.19922 68.467 8.49186 69.0364 7.90529C69.6058 7.32071 70.3035 7.03156 71.1536 7.03036C71.9978 7.03156 72.6939 7.32191 73.2676 7.90957C73.839 8.49882 74.1216 9.20509 74.1228 10.0497C74.1216 10.9001 73.8398 11.6075 73.2715 12.194L73.3426 12.2632L73.4142 12.3324C74.0174 11.7129 74.3225 10.9444 74.3218 10.0497C74.3225 9.16001 74.0162 8.39315 73.4102 7.77086C72.8039 7.14618 72.0444 6.83026 71.1536 6.83136C70.2581 6.83026 69.4963 7.14469 68.8938 7.76698V7.76658C68.2894 8.38648 67.9854 9.15494 67.9862 10.0497C67.9854 10.9444 68.2894 11.7129 68.8938 12.3328L68.8965 12.3355L68.8938 12.3324C69.4963 12.9546 70.2581 13.2684 71.1536 13.2676C72.0487 13.2684 72.8105 12.9546 73.4142 12.3324L73.3426 12.2632Z" fill="white"/>
<path d="M75.2988 13.0344V7.06427H76.2325L79.134 11.7087H79.167L79.134 10.5581V7.06427H79.9016V13.0344H79.1009L76.0653 8.16497H76.0323L76.0653 9.31591V13.0344H75.2988Z" fill="white"/>
<path d="M75.2988 13.0348H75.3983V7.16413H76.1772L79.0787 11.8085H79.167H79.2692L79.2335 10.557V7.16413H79.8021V12.9353H79.1562L76.1205 8.06582H76.0323H75.9301L75.9658 9.31786V12.9353H75.2988V13.0348H75.3983H75.2988V13.1343H76.0653H76.1648V9.31468L76.1318 8.16264L76.0323 8.16532V8.26483H76.0653V8.16532L75.9809 8.21826L79.0457 13.1343H79.9016H80.0011V6.96512H79.134H79.0345V10.5597L79.0675 11.7117L79.167 11.709V11.6095H79.134V11.709L79.2183 11.6562L76.2876 6.96512H75.2988H75.1993V13.1343H75.2988V13.0348Z" fill="white"/>
<path d="M106.503 29.9502H108.36V17.5112H106.503V29.9502ZM123.227 21.992L121.099 27.3849H121.035L118.826 21.992H116.826L120.138 29.5296L118.25 33.7223H120.187L125.292 21.992H123.227ZM112.698 28.5373C112.089 28.5373 111.241 28.2334 111.241 27.4809C111.241 26.5208 112.298 26.1528 113.209 26.1528C114.026 26.1528 114.409 26.3288 114.905 26.5691C114.761 27.7211 113.769 28.5373 112.698 28.5373ZM112.921 21.7198C111.577 21.7198 110.185 22.3122 109.609 23.6244L111.257 24.3124C111.609 23.6244 112.265 23.4001 112.953 23.4001C113.913 23.4001 114.89 23.9766 114.905 25.0007V25.1286C114.569 24.9366 113.85 24.6486 112.969 24.6486C111.193 24.6486 109.384 25.6245 109.384 27.449C109.384 29.1134 110.841 30.1857 112.473 30.1857C113.721 30.1857 114.409 29.6256 114.842 28.9696H114.905V29.9296H116.698V25.1604C116.698 22.9524 115.05 21.7198 112.921 21.7198ZM101.447 23.5062H98.806V19.2424H101.447C102.835 19.2424 103.623 20.3917 103.623 21.3743C103.623 22.3382 102.835 23.5062 101.447 23.5062ZM101.399 17.5112H96.9503V29.9502H98.806V25.2374H101.399C103.457 25.2374 105.48 23.7476 105.48 21.3743C105.48 19.001 103.457 17.5112 101.399 17.5112ZM77.1393 28.5396C75.8566 28.5396 74.7827 27.4657 74.7827 25.9907C74.7827 24.5001 75.8566 23.4099 77.1393 23.4099C78.4057 23.4099 79.3995 24.5001 79.3995 25.9907C79.3995 27.4657 78.4057 28.5396 77.1393 28.5396ZM79.2713 22.6885H79.2071C78.7905 22.1917 77.9886 21.7428 76.9788 21.7428C74.8628 21.7428 72.9233 23.6022 72.9233 25.9907C72.9233 28.3632 74.8628 30.2067 76.9788 30.2067C77.9886 30.2067 78.7905 29.7577 79.2071 29.2451H79.2713V29.8542C79.2713 31.4735 78.4057 32.339 77.0111 32.339C75.8729 32.339 75.1676 31.5212 74.8787 30.8321L73.2599 31.5053C73.7248 32.6274 74.9592 34.0061 77.0111 34.0061C79.1912 34.0061 81.0346 32.7234 81.0346 29.5976V21.9993H79.2713V22.6885ZM82.3169 29.9502H84.1764V17.5108H82.3169V29.9502ZM86.9177 25.8465C86.8696 24.2113 88.1841 23.3779 89.1298 23.3779C89.8677 23.3779 90.4925 23.7464 90.7005 24.2759L86.9177 25.8465ZM92.6886 24.436C92.3363 23.4899 91.2617 21.7428 89.0656 21.7428C86.8855 21.7428 85.0742 23.458 85.0742 25.9748C85.0742 28.3473 86.8696 30.2067 89.2739 30.2067C91.2139 30.2067 92.3363 29.0204 92.801 28.3313L91.3582 27.3693C90.8776 28.0748 90.2199 28.5396 89.2739 28.5396C88.3283 28.5396 87.6551 28.1067 87.2221 27.2573L92.8806 24.9168L92.6886 24.436ZM47.6058 23.0413V24.8367H51.9018C51.7735 25.8465 51.4369 26.5838 50.9239 27.0969C50.2989 27.7222 49.321 28.4114 47.6058 28.4114C44.9607 28.4114 42.893 26.2794 42.893 23.6345C42.893 20.9895 44.9607 18.8572 47.6058 18.8572C49.0326 18.8572 50.0742 19.4184 50.8438 20.1398L52.1102 18.8736C51.0362 17.8474 49.6094 17.0619 47.6058 17.0619C43.9828 17.0619 40.9371 20.0116 40.9371 23.6345C40.9371 27.2573 43.9828 30.2067 47.6058 30.2067C49.5616 30.2067 51.0362 29.5658 52.1903 28.3632C53.3765 27.1769 53.7454 25.5099 53.7454 24.1635C53.7454 23.7464 53.7134 23.362 53.649 23.0413H47.6058ZM58.6296 28.5396C57.3469 28.5396 56.2407 27.4816 56.2407 25.9748C56.2407 24.4519 57.3469 23.4099 58.6296 23.4099C59.9118 23.4099 61.0179 24.4519 61.0179 25.9748C61.0179 27.4816 59.9118 28.5396 58.6296 28.5396ZM58.6296 21.7428C56.2889 21.7428 54.3812 23.5221 54.3812 25.9748C54.3812 28.4114 56.2889 30.2067 58.6296 30.2067C60.9698 30.2067 62.8774 28.4114 62.8774 25.9748C62.8774 23.5221 60.9698 21.7428 58.6296 21.7428ZM67.8964 28.5396C66.6142 28.5396 65.508 27.4816 65.508 25.9748C65.508 24.4519 66.6142 23.4099 67.8964 23.4099C69.1787 23.4099 70.2849 24.4519 70.2849 25.9748C70.2849 27.4816 69.1787 28.5396 67.8964 28.5396ZM67.8964 21.7428C65.5558 21.7428 63.6486 23.5221 63.6486 25.9748C63.6486 28.4114 65.5558 30.2067 67.8964 30.2067C70.2367 30.2067 72.1444 28.4114 72.1444 25.9748C72.1444 23.5221 70.2367 21.7428 67.8964 21.7428Z" fill="white"/>
<path d="M10.5571 32.3276L10.4832 32.2569C10.1936 31.9505 10.0227 31.4748 10.0227 30.8588V31.0038V8.99779C10.0227 8.9958 10.0227 8.99431 10.0227 8.99272C10.0227 8.99461 10.0227 8.9962 10.0227 8.99819V9.14356C10.0227 8.4765 10.222 7.97401 10.5559 7.67272L22.8841 20.0006L10.5571 32.3276ZM10.0227 8.99152C10.0227 8.9367 10.0242 8.88346 10.027 8.83103C10.0242 8.88307 10.0227 8.9367 10.0227 8.99152ZM10.027 8.82864C10.027 8.82794 10.027 8.82714 10.0273 8.82635C10.027 8.82714 10.027 8.82794 10.027 8.82864ZM10.0273 8.82167C10.0273 8.82128 10.0273 8.82088 10.0273 8.82048C10.0273 8.82088 10.0273 8.82128 10.0273 8.82167Z" fill="url(#paint0_linear_912_25971)"/>
<path d="M26.9928 24.2571L27.0865 24.2038L31.9551 21.4376C32.4193 21.1737 32.7286 20.8538 32.8829 20.5153C32.729 20.8538 32.4196 21.1741 31.9551 21.438L27.0865 24.2042L26.9928 24.2571ZM26.994 24.1113L22.884 20.0007L26.9936 15.8907L31.9551 18.7094C32.5851 19.0674 32.9389 19.5288 32.998 20.0003C32.998 20.0007 32.998 20.0015 32.998 20.0022C32.9389 20.4725 32.5851 20.9343 31.9551 21.2922L26.994 24.1113Z" fill="url(#paint1_linear_912_25971)"/>
<path d="M11.4358 32.7969C11.0915 32.7969 10.791 32.6849 10.5566 32.4735L10.557 32.4731C10.7914 32.6845 11.0923 32.7969 11.4366 32.7969C11.4665 32.7969 11.4968 32.7961 11.5276 32.7946C11.4964 32.7961 11.4657 32.7969 11.4358 32.7969ZM11.4362 32.6511C11.0919 32.6515 10.7914 32.5392 10.557 32.3277V32.3274L22.884 20.0004L26.994 24.111L12.551 32.3173C12.1514 32.5438 11.7728 32.6511 11.4362 32.6511ZM10.5536 32.4708C10.5318 32.451 10.5104 32.43 10.4894 32.4082L10.5536 32.4708Z" fill="url(#paint2_linear_912_25971)"/>
<path d="M22.8838 20.0007L10.5557 7.67287C10.79 7.46183 11.0901 7.34989 11.4341 7.34989C11.7715 7.34989 12.1504 7.45755 12.5508 7.68451L26.9934 15.8908L22.8838 20.0007ZM27.0863 15.7979L12.5508 7.53924C12.1504 7.31217 11.7715 7.20451 11.4341 7.20451C11.4325 7.20451 11.4314 7.20451 11.4298 7.20451C11.4318 7.20451 11.4333 7.20451 11.4357 7.20451C11.7723 7.20451 12.1508 7.31178 12.5508 7.53884L27.0863 15.7979Z" fill="url(#paint3_linear_912_25971)"/>
<path d="M11.5275 32.7944C11.8403 32.7765 12.1867 32.6689 12.5509 32.4625L26.9927 24.2566L12.5509 32.4625C12.187 32.6693 11.8403 32.7765 11.5275 32.7944ZM10.5566 32.4733L10.5535 32.4707C10.5546 32.4714 10.5558 32.4725 10.5566 32.4733ZM10.4893 32.4081L10.483 32.4019V32.4015C10.4854 32.4038 10.4873 32.4061 10.4893 32.4081Z" fill="black"/>
<path d="M26.9927 24.2571L27.0864 24.2038L26.9927 24.2571Z" fill="url(#paint4_linear_912_25971)"/>
<path d="M11.4366 32.7969C11.0922 32.7969 10.7913 32.6845 10.557 32.4731L10.5566 32.4735C10.5558 32.4727 10.5546 32.4716 10.5535 32.4708L10.4893 32.4082C10.4873 32.4062 10.4854 32.4039 10.483 32.4017L10.557 32.3277C10.7913 32.5392 11.0918 32.6515 11.4362 32.6511C11.7727 32.6511 12.1513 32.5438 12.5509 32.3173L26.9939 24.111L27.0864 24.2035L26.9927 24.2568L12.5509 32.4626C12.1867 32.669 11.8403 32.7767 11.5275 32.7946C11.4968 32.7961 11.4664 32.7969 11.4366 32.7969Z" fill="url(#paint5_linear_912_25971)"/>
<path d="M10.4832 32.4023C10.1936 32.096 10.0227 31.6203 10.0227 31.0042V31.0038C10.0227 31.6203 10.1936 32.0956 10.4832 32.4019V32.4023Z" fill="black"/>
<path d="M10.4832 32.4021C10.1936 32.0957 10.0227 31.6204 10.0227 31.004V30.859C10.0227 31.475 10.1936 31.9508 10.4832 32.2571L10.5571 32.3279L10.4832 32.4021Z" fill="url(#paint6_linear_912_25971)"/>
<path d="M10.483 32.4021L10.557 32.3279V32.3282L10.483 32.4021Z" fill="url(#paint7_linear_912_25971)"/>
<path d="M32.8828 20.5156C32.9593 20.3477 32.9978 20.1751 32.9978 20.0025C32.9978 20.0022 32.9978 20.0018 32.9978 20.0018C32.9978 20.1747 32.9593 20.3473 32.8828 20.5156Z" fill="black"/>
<path d="M27.0864 24.2036L26.9939 24.1111L31.955 21.292C32.585 20.9341 32.9388 20.4723 32.9979 20.0019C32.9979 20.1746 32.9594 20.3471 32.8829 20.5151C32.7285 20.8536 32.4192 21.1735 31.955 21.4373L27.0864 24.2036Z" fill="url(#paint8_linear_912_25971)"/>
<path d="M32.9978 20.0007V20.0003C32.9974 19.4798 32.6495 18.9594 31.9549 18.5645L27.0863 15.7982H27.0859L27.0863 15.7979L31.9549 18.5641C32.6503 18.959 32.9986 19.4802 32.9978 20.0007Z" fill="#404040"/>
<path d="M32.9979 20.0005C32.9388 19.529 32.5851 19.0677 31.955 18.7096L26.9935 15.8909L27.0861 15.7984H27.0865L31.955 18.5647C32.6496 18.9596 32.9975 19.48 32.9979 20.0005Z" fill="url(#paint9_linear_912_25971)"/>
<path d="M10.0227 8.99268C10.0227 8.99228 10.0227 8.99188 10.0227 8.99148C10.0227 8.99188 10.0227 8.99228 10.0227 8.99268ZM10.027 8.83098C10.027 8.83019 10.027 8.82939 10.027 8.8286C10.027 8.82939 10.027 8.83019 10.027 8.83098ZM10.0273 8.82631C10.0273 8.82472 10.0273 8.82322 10.0273 8.82163C10.0273 8.82322 10.0273 8.82472 10.0273 8.82631ZM10.0273 8.82044C10.0849 7.79825 10.6407 7.2078 11.427 7.20432C11.0861 7.20631 10.7892 7.31825 10.5567 7.5277V7.52731L10.5539 7.53009C10.5295 7.55218 10.5062 7.57556 10.4832 7.59964C10.222 7.87596 10.0572 8.28989 10.0273 8.82044Z" fill="#404040"/>
<path d="M10.0227 9.1438V8.99843C10.0227 8.99644 10.0227 8.99484 10.0227 8.99295C10.0227 8.99256 10.0227 8.99216 10.0227 8.99176C10.0227 8.93693 10.0242 8.8833 10.027 8.83126C10.027 8.83047 10.027 8.82967 10.027 8.82888C10.027 8.82818 10.027 8.82738 10.0273 8.82659C10.0273 8.82499 10.0273 8.8235 10.0273 8.82191C10.0273 8.82151 10.0273 8.82111 10.0273 8.82072C10.0572 8.29017 10.222 7.87624 10.4832 7.59992L10.5559 7.67295C10.222 7.97425 10.0227 8.47673 10.0227 9.1438ZM10.5539 7.53036L10.5567 7.52758C10.5559 7.52877 10.5547 7.52957 10.5539 7.53036Z" fill="url(#paint10_linear_912_25971)"/>
<path d="M26.9935 15.8909L12.5509 7.6846C12.1505 7.45764 11.7716 7.34997 11.4342 7.34997C11.0902 7.34997 10.7901 7.46192 10.5558 7.67296L10.483 7.59992C10.506 7.57584 10.5293 7.55246 10.5538 7.53037C10.5546 7.52958 10.5558 7.52878 10.5566 7.52798C10.789 7.31853 11.0859 7.20659 11.4268 7.2046C11.4276 7.2046 11.4287 7.2046 11.4299 7.2046C11.4315 7.2046 11.4326 7.2046 11.4342 7.2046C11.7716 7.2046 12.1505 7.31226 12.5509 7.53933L27.0864 15.798L27.086 15.7983L26.9935 15.8909Z" fill="url(#paint11_linear_912_25971)"/>
</g>
<defs>
<linearGradient id="paint0_linear_912_25971" x1="21.791" y1="8.76565" x2="5.09196" y2="25.4647" gradientUnits="userSpaceOnUse">
<stop stop-color="#00A0FF"/>
<stop offset="0.00657445" stop-color="#00A1FF"/>
<stop offset="0.2601" stop-color="#00BEFF"/>
<stop offset="0.5122" stop-color="#00D2FF"/>
<stop offset="0.7604" stop-color="#00DFFF"/>
<stop offset="1" stop-color="#00E3FF"/>
</linearGradient>
<linearGradient id="paint1_linear_912_25971" x1="33.7656" y1="20.0013" x2="9.68901" y2="20.0013" gradientUnits="userSpaceOnUse">
<stop stop-color="#FFE000"/>
<stop offset="0.4087" stop-color="#FFBD00"/>
<stop offset="0.7754" stop-color="#FFA500"/>
<stop offset="1" stop-color="#FF9C00"/>
</linearGradient>
<linearGradient id="paint2_linear_912_25971" x1="24.803" y1="22.2842" x2="2.15793" y2="44.9293" gradientUnits="userSpaceOnUse">
<stop stop-color="#FF3A44"/>
<stop offset="1" stop-color="#C31162"/>
</linearGradient>
<linearGradient id="paint3_linear_912_25971" x1="7.36034" y1="0.274761" x2="17.4723" y2="10.3867" gradientUnits="userSpaceOnUse">
<stop stop-color="#32A071"/>
<stop offset="0.0685" stop-color="#2DA771"/>
<stop offset="0.4762" stop-color="#15CF74"/>
<stop offset="0.8009" stop-color="#06E775"/>
<stop offset="1" stop-color="#00F076"/>
</linearGradient>
<linearGradient id="paint4_linear_912_25971" x1="33.7656" y1="20.0015" x2="9.68862" y2="20.0015" gradientUnits="userSpaceOnUse">
<stop stop-color="#CCB300"/>
<stop offset="0.4087" stop-color="#CC9700"/>
<stop offset="0.7754" stop-color="#CC8400"/>
<stop offset="1" stop-color="#CC7D00"/>
</linearGradient>
<linearGradient id="paint5_linear_912_25971" x1="24.8029" y1="22.2842" x2="2.15786" y2="44.9293" gradientUnits="userSpaceOnUse">
<stop stop-color="#CC2E36"/>
<stop offset="1" stop-color="#9C0E4E"/>
</linearGradient>
<linearGradient id="paint6_linear_912_25971" x1="21.791" y1="8.76584" x2="5.09195" y2="25.4649" gradientUnits="userSpaceOnUse">
<stop stop-color="#008DE0"/>
<stop offset="0.00657445" stop-color="#008DE0"/>
<stop offset="0.2601" stop-color="#00A7E0"/>
<stop offset="0.5122" stop-color="#00B8E0"/>
<stop offset="0.7604" stop-color="#00C4E0"/>
<stop offset="1" stop-color="#00C7E0"/>
</linearGradient>
<linearGradient id="paint7_linear_912_25971" x1="24.8026" y1="22.285" x2="2.15832" y2="44.9296" gradientUnits="userSpaceOnUse">
<stop stop-color="#E0333C"/>
<stop offset="1" stop-color="#AB0F56"/>
</linearGradient>
<linearGradient id="paint8_linear_912_25971" x1="33.7655" y1="20.001" x2="9.68891" y2="20.001" gradientUnits="userSpaceOnUse">
<stop stop-color="#E0C500"/>
<stop offset="0.4087" stop-color="#E0A600"/>
<stop offset="0.7754" stop-color="#E09100"/>
<stop offset="1" stop-color="#E08900"/>
</linearGradient>
<linearGradient id="paint9_linear_912_25971" x1="33.7656" y1="20.0015" x2="9.68896" y2="20.0015" gradientUnits="userSpaceOnUse">
<stop stop-color="#FFE840"/>
<stop offset="0.4087" stop-color="#FFCE40"/>
<stop offset="0.7754" stop-color="#FFBC40"/>
<stop offset="1" stop-color="#FFB540"/>
</linearGradient>
<linearGradient id="paint10_linear_912_25971" x1="21.7908" y1="8.76589" x2="5.09181" y2="25.4647" gradientUnits="userSpaceOnUse">
<stop stop-color="#40B8FF"/>
<stop offset="0.00657445" stop-color="#40B9FF"/>
<stop offset="0.2601" stop-color="#40CEFF"/>
<stop offset="0.5122" stop-color="#40DDFF"/>
<stop offset="0.7604" stop-color="#40E7FF"/>
<stop offset="1" stop-color="#40EAFF"/>
</linearGradient>
<linearGradient id="paint11_linear_912_25971" x1="7.36044" y1="0.27485" x2="17.4724" y2="10.3868" gradientUnits="userSpaceOnUse">
<stop stop-color="#65B895"/>
<stop offset="0.0685" stop-color="#62BD95"/>
<stop offset="0.4762" stop-color="#50DB97"/>
<stop offset="0.8009" stop-color="#44ED98"/>
<stop offset="1" stop-color="#40F498"/>
</linearGradient>
<clipPath id="clip0_912_25971">
<rect width="134.627" height="40" fill="white"/>
</clipPath>
</defs>
</svg>
